<svg width="40" height="40" viewBox="0 0 40 40" fill="none" xmlns="http://www.w3.org/2000/svg">
<g filter="url(#filter0_i_22_309)">
<path d="M25.3402 15.7122L22.2993 18.4822C21.9646 18.7871 21.447 18.7667 21.1373 18.4364C20.825 18.1033 20.8412 17.5803 21.1735 17.2671L24.4386 14.1904C25.1542 13.5161 25.1442 12.3754 24.4171 11.7137L24.3461 11.6491C23.737 11.0948 22.8048 11.0999 22.2018 11.6608L21.6399 12.1835C21.3479 12.4552 20.8955 12.4548 20.6039 12.1827C20.2781 11.8786 20.2827 11.3608 20.6138 11.0626L21.7336 10.0539C22.5902 9.28233 23.9037 9.32714 24.7057 10.1553L25.4889 10.964C26.7878 12.3052 26.7204 14.4549 25.3402 15.7122Z" fill="#999999"/>
<path d="M25.3402 15.7122L22.2993 18.4822C21.9646 18.7871 21.447 18.7667 21.1373 18.4364C20.825 18.1033 20.8412 17.5803 21.1735 17.2671L24.4386 14.1904C25.1542 13.5161 25.1442 12.3754 24.4171 11.7137L24.3461 11.6491C23.737 11.0948 22.8048 11.0999 22.2018 11.6608L21.6399 12.1835C21.3479 12.4552 20.8955 12.4548 20.6039 12.1827C20.2781 11.8786 20.2827 11.3608 20.6138 11.0626L21.7336 10.0539C22.5902 9.28233 23.9037 9.32714 24.7057 10.1553L25.4889 10.964C26.7878 12.3052 26.7204 14.4549 25.3402 15.7122Z" fill="url(#paint0_linear_22_309)" fill-opacity="0.6"/>
</g>
<g filter="url(#filter1_i_22_309)">
<path d="M8.46651 23.2964L6.74631 21.3455C6.32555 20.8683 6.71757 20.124 7.3491 20.201C7.50514 20.22 7.65005 20.2916 7.75997 20.404L9.17923 21.8548C9.53716 22.2206 10.1284 22.2125 10.4762 21.837L10.6091 21.6934C10.872 21.4094 11.3154 21.3927 11.599 21.656C11.8907 21.9269 11.8981 22.3862 11.6151 22.6663L10.8954 23.3788C10.2127 24.0547 9.10191 24.0171 8.46651 23.2964Z" fill="#999999"/>
<path d="M8.46651 23.2964L6.74631 21.3455C6.32555 20.8683 6.71757 20.124 7.3491 20.201C7.50514 20.22 7.65005 20.2916 7.75997 20.404L9.17923 21.8548C9.53716 22.2206 10.1284 22.2125 10.4762 21.837L10.6091 21.6934C10.872 21.4094 11.3154 21.3927 11.599 21.656C11.8907 21.9269 11.8981 22.3862 11.6151 22.6663L10.8954 23.3788C10.2127 24.0547 9.10191 24.0171 8.46651 23.2964Z" fill="url(#paint1_linear_22_309)" fill-opacity="0.6"/>
</g>
<g filter="url(#filter2_i_22_309)">
<path d="M24.2836 20.9642L20.4622 24.6342C20.1253 24.9577 20.1199 25.4948 20.4501 25.825C20.7687 26.1436 21.2829 26.1514 21.611 25.8426L25.4692 22.2113C25.8227 21.8786 25.8311 21.3196 25.4879 20.9763C25.1567 20.6451 24.6214 20.6397 24.2836 20.9642Z" fill="#999999"/>
<path d="M24.2836 20.9642L20.4622 24.6342C20.1253 24.9577 20.1199 25.4948 20.4501 25.825C20.7687 26.1436 21.2829 26.1514 21.611 25.8426L25.4692 22.2113C25.8227 21.8786 25.8311 21.3196 25.4879 20.9763C25.1567 20.6451 24.6214 20.6397 24.2836 20.9642Z" fill="url(#paint2_linear_22_309)" fill-opacity="0.6"/>
</g>
<g filter="url(#filter3_dii_22_309)">
<path d="M21.8227 27.8019L18.4283 24.4243C18.1095 24.1072 17.5942 24.1078 17.2763 24.4258C16.9591 24.7429 16.9575 25.2565 17.2727 25.5756L20.4886 28.832C21.6863 30.0449 23.6344 30.0763 24.8705 28.9026L25.6759 28.138C26.4614 27.3921 26.5077 26.1555 25.78 25.353L24.9893 24.481C24.6751 24.1345 24.1379 24.1129 23.797 24.433C23.4629 24.7466 23.4433 25.2706 23.7528 25.6083L24.0388 25.9202C24.4902 26.4127 24.4808 27.1713 24.0173 27.6524L23.8944 27.78C23.3311 28.3646 22.3982 28.3745 21.8227 27.8019Z" fill="#1569EF"/>
<path d="M21.8227 27.8019L18.4283 24.4243C18.1095 24.1072 17.5942 24.1078 17.2763 24.4258C16.9591 24.7429 16.9575 25.2565 17.2727 25.5756L20.4886 28.832C21.6863 30.0449 23.6344 30.0763 24.8705 28.9026L25.6759 28.138C26.4614 27.3921 26.5077 26.1555 25.78 25.353L24.9893 24.481C24.6751 24.1345 24.1379 24.1129 23.797 24.433C23.4629 24.7466 23.4433 25.2706 23.7528 25.6083L24.0388 25.9202C24.4902 26.4127 24.4808 27.1713 24.0173 27.6524L23.8944 27.78C23.3311 28.3646 22.3982 28.3745 21.8227 27.8019Z" fill="url(#paint3_linear_22_309)" fill-opacity="0.6"/>
</g>
<g filter="url(#filter4_dii_22_309)">
<path d="M11.2525 19.439L13.9174 22.1319C14.249 22.4671 14.7953 22.4507 15.1063 22.0963C15.3872 21.7762 15.3735 21.2937 15.075 20.9901L11.1938 17.0422C10.4197 16.2549 9.15164 16.2513 8.37314 17.0343L6.72235 18.6947C6.2242 19.1958 6.52298 20.0505 7.2248 20.1322C7.48675 20.1626 7.74794 20.0692 7.93119 19.8796L8.34014 19.4564C9.13419 18.6346 10.4488 18.6268 11.2525 19.439Z" fill="#1569EF"/>
<path d="M11.2525 19.439L13.9174 22.1319C14.249 22.4671 14.7953 22.4507 15.1063 22.0963C15.3872 21.7762 15.3735 21.2937 15.075 20.9901L11.1938 17.0422C10.4197 16.2549 9.15164 16.2513 8.37314 17.0343L6.72235 18.6947C6.2242 19.1958 6.52298 20.0505 7.2248 20.1322C7.48675 20.1626 7.74794 20.0692 7.93119 19.8796L8.34014 19.4564C9.13419 18.6346 10.4488 18.6268 11.2525 19.439Z" fill="url(#paint4_linear_22_309)" fill-opacity="0.6"/>
<path d="M11.2525 19.439L13.9174 22.1319C14.249 22.4671 14.7953 22.4507 15.1063 22.0963C15.3872 21.7762 15.3735 21.2937 15.075 20.9901L11.1938 17.0422C10.4197 16.2549 9.15164 16.2513 8.37314 17.0343L6.72235 18.6947C6.2242 19.1958 6.52298 20.0505 7.2248 20.1322C7.48675 20.1626 7.74794 20.0692 7.93119 19.8796L8.34014 19.4564C9.13419 18.6346 10.4488 18.6268 11.2525 19.439Z" fill="url(#paint5_linear_22_309)" fill-opacity="0.2"/>
</g>
<g filter="url(#filter5_dii_22_309)">
<path d="M15.2479 14.0449L15.7529 14.5925C16.0473 14.9118 16.04 15.4058 15.7362 15.7163C15.4075 16.0521 14.8637 16.0415 14.5483 15.6931L13.5051 14.5405C12.6836 13.6329 12.7259 12.2385 13.6008 11.3823L14.2972 10.7008C15.6171 9.40914 17.741 9.45558 19.0031 10.8037L21.9983 14.0027C22.3159 14.342 22.3045 14.8729 21.9725 15.1981C21.6292 15.5344 21.0764 15.5219 20.7486 15.1705L17.6525 11.8509C17.0242 11.1774 15.9529 11.1687 15.3016 11.82C14.6946 12.427 14.6659 13.4138 15.2479 14.0449Z" fill="#1569EF"/>
<path d="M15.2479 14.0449L15.7529 14.5925C16.0473 14.9118 16.04 15.4058 15.7362 15.7163C15.4075 16.0521 14.8637 16.0415 14.5483 15.6931L13.5051 14.5405C12.6836 13.6329 12.7259 12.2385 13.6008 11.3823L14.2972 10.7008C15.6171 9.40914 17.741 9.45558 19.0031 10.8037L21.9983 14.0027C22.3159 14.342 22.3045 14.8729 21.9725 15.1981C21.6292 15.5344 21.0764 15.5219 20.7486 15.1705L17.6525 11.8509C17.0242 11.1774 15.9529 11.1687 15.3016 11.82C14.6946 12.427 14.6659 13.4138 15.2479 14.0449Z" fill="url(#paint6_linear_22_309)" fill-opacity="0.6"/>
</g>
<g filter="url(#filter6_dii_22_309)">
<path d="M22.0106 21.2797L18.7244 17.7494C18.4214 17.4239 17.9117 17.4064 17.587 17.7103C17.2637 18.013 17.2463 18.5204 17.5481 18.8446L20.835 22.3742C21.1425 22.7044 21.6617 22.7165 21.9843 22.4009C22.2958 22.0962 22.3075 21.5986 22.0106 21.2797Z" fill="#1569EF"/>
<path d="M22.0106 21.2797L18.7244 17.7494C18.4214 17.4239 17.9117 17.4064 17.587 17.7103C17.2637 18.013 17.2463 18.5204 17.5481 18.8446L20.835 22.3742C21.1425 22.7044 21.6617 22.7165 21.9843 22.4009C22.2958 22.0962 22.3075 21.5986 22.0106 21.2797Z" fill="url(#paint7_linear_22_309)" fill-opacity="0.6"/>
</g>
<g filter="url(#filter7_i_22_309)">
<path d="M19.1846 15.5328L15.3334 19.2696C15.0106 19.5829 14.4978 19.5844 14.1731 19.2732C13.8348 18.949 13.829 18.4101 14.1604 18.0787L17.9548 14.2843C18.3067 13.9324 18.8808 13.9439 19.2183 14.3096C19.5408 14.6589 19.5259 15.2017 19.1846 15.5328Z" fill="#999999"/>
<path d="M19.1846 15.5328L15.3334 19.2696C15.0106 19.5829 14.4978 19.5844 14.1731 19.2732C13.8348 18.949 13.829 18.4101 14.1604 18.0787L17.9548 14.2843C18.3067 13.9324 18.8808 13.9439 19.2183 14.3096C19.5408 14.6589 19.5259 15.2017 19.1846 15.5328Z" fill="url(#paint8_linear_22_309)" fill-opacity="0.6"/>
</g>
<g filter="url(#filter8_i_22_309)">
<path d="M14.4658 25.8813L17.7975 22.8511C18.1312 22.5476 18.1573 22.0316 17.8559 21.696C17.551 21.3564 17.0275 21.3309 16.6911 21.6393L14.1564 23.9628L13.4816 24.5814C12.127 25.823 12.0615 27.9368 13.3365 29.26L14.0258 29.9755C14.9087 30.8917 16.3696 30.911 17.2764 30.0185L18.3142 28.9969C18.6004 28.7151 18.6156 28.2585 18.3488 27.9583C18.0639 27.6378 17.5693 27.6191 17.261 27.9171L16.6757 28.483C16.0691 29.0693 15.1029 29.0562 14.5125 28.4536L14.3952 28.3339C13.7194 27.6441 13.7514 26.5311 14.4658 25.8813Z" fill="#999999"/>
<path d="M14.4658 25.8813L17.7975 22.8511C18.1312 22.5476 18.1573 22.0316 17.8559 21.696C17.551 21.3564 17.0275 21.3309 16.6911 21.6393L14.1564 23.9628L13.4816 24.5814C12.127 25.823 12.0615 27.9368 13.3365 29.26L14.0258 29.9755C14.9087 30.8917 16.3696 30.911 17.2764 30.0185L18.3142 28.9969C18.6004 28.7151 18.6156 28.2585 18.3488 27.9583C18.0639 27.6378 17.5693 27.6191 17.261 27.9171L16.6757 28.483C16.0691 29.0693 15.1029 29.0562 14.5125 28.4536L14.3952 28.3339C13.7194 27.6441 13.7514 26.5311 14.4658 25.8813Z" fill="url(#paint9_linear_22_309)" fill-opacity="0.6"/>
</g>
<g filter="url(#filter9_dii_22_309)">
<path d="M28.2338 20.4388L25.5689 17.7459C25.2373 17.4107 24.691 17.4271 24.38 17.7815C24.0991 18.1016 24.1128 18.5841 24.4113 18.8877L28.2925 22.8356C29.0666 23.6229 30.3347 23.6265 31.1132 22.8435L32.764 21.1831C33.2621 20.682 32.9633 19.8273 32.2615 19.7457C31.9996 19.7152 31.7384 19.8086 31.5551 19.9982L31.1462 20.4214C30.3521 21.2432 29.0376 21.251 28.2338 20.4388Z" fill="#1569EF"/>
<path d="M28.2338 20.4388L25.5689 17.7459C25.2373 17.4107 24.691 17.4271 24.38 17.7815C24.0991 18.1016 24.1128 18.5841 24.4113 18.8877L28.2925 22.8356C29.0666 23.6229 30.3347 23.6265 31.1132 22.8435L32.764 21.1831C33.2621 20.682 32.9633 19.8273 32.2615 19.7457C31.9996 19.7152 31.7384 19.8086 31.5551 19.9982L31.1462 20.4214C30.3521 21.2432 29.0376 21.251 28.2338 20.4388Z" fill="url(#paint10_linear_22_309)" fill-opacity="0.6"/>
</g>
<g filter="url(#filter10_i_22_309)">
<path d="M31.5833 16.5555L33.3035 18.5064C33.7243 18.9837 33.3322 19.728 32.7007 19.651C32.5447 19.6319 32.3998 19.5603 32.2898 19.448L30.8706 17.9972C30.5126 17.6313 29.9214 17.6394 29.5736 18.015L29.4407 18.1586C29.1778 18.4425 28.7344 18.4592 28.4508 18.1959C28.1591 17.925 28.1517 17.4657 28.4347 17.1856L29.1544 16.4731C29.8371 15.7972 30.9479 15.8348 31.5833 16.5555Z" fill="#999999"/>
<path d="M31.5833 16.5555L33.3035 18.5064C33.7243 18.9837 33.3322 19.728 32.7007 19.651C32.5447 19.6319 32.3998 19.5603 32.2898 19.448L30.8706 17.9972C30.5126 17.6313 29.9214 17.6394 29.5736 18.015L29.4407 18.1586C29.1778 18.4425 28.7344 18.4592 28.4508 18.1959C28.1591 17.925 28.1517 17.4657 28.4347 17.1856L29.1544 16.4731C29.8371 15.7972 30.9479 15.8348 31.5833 16.5555Z" fill="url(#paint11_linear_22_309)" fill-opacity="0.6"/>
</g>
<g filter="url(#filter11_f_22_309)">
<circle cx="20" cy="20" r="16" fill="white" fill-opacity="0.1"/>
</g>
<defs>
<filter id="filter0_i_22_309" x="20.3623" y="9.50342" width="6.05859" height="13.1948" filterUnits="userSpaceOnUse" color-interpolation-filters="sRGB">
<feFlood flood-opacity="0" result="BackgroundImageFix"/>
<feBlend mode="normal" in="SourceGraphic" in2="BackgroundImageFix" result="shape"/>
<feColorMatrix in="SourceAlpha" type="matrix" values="0 0 0 0 0 0 0 0 0 0 0 0 0 0 0 0 0 0 127 0" result="hardAlpha"/>
<feOffset dy="4"/>
<feGaussianBlur stdDeviation="2"/>
<feComposite in2="hardAlpha" operator="arithmetic" k2="-1" k3="1"/>
<feColorMatrix type="matrix" values="0 0 0 0 0 0 0 0 0 0 0 0 0 0 0 0 0 0 0.35 0"/>
<feBlend mode="normal" in2="shape" result="effect1_innerShadow_22_309"/>
</filter>
<filter id="filter1_i_22_309" x="6.57129" y="20.1954" width="5.25098" height="7.66687" filterUnits="userSpaceOnUse" color-interpolation-filters="sRGB">
<feFlood flood-opacity="0" result="BackgroundImageFix"/>
<feBlend mode="normal" in="SourceGraphic" in2="BackgroundImageFix" result="shape"/>
<feColorMatrix in="SourceAlpha" type="matrix" values="0 0 0 0 0 0 0 0 0 0 0 0 0 0 0 0 0 0 127 0" result="hardAlpha"/>
<feOffset dy="4"/>
<feGaussianBlur stdDeviation="2"/>
<feComposite in2="hardAlpha" operator="arithmetic" k2="-1" k3="1"/>
<feColorMatrix type="matrix" values="0 0 0 0 0 0 0 0 0 0 0 0 0 0 0 0 0 0 0.35 0"/>
<feBlend mode="normal" in2="shape" result="effect1_innerShadow_22_309"/>
</filter>
<filter id="filter2_i_22_309" x="20.2061" y="20.7244" width="5.53418" height="9.34473" filterUnits="userSpaceOnUse" color-interpolation-filters="sRGB">
<feFlood flood-opacity="0" result="BackgroundImageFix"/>
<feBlend mode="normal" in="SourceGraphic" in2="BackgroundImageFix" result="shape"/>
<feColorMatrix in="SourceAlpha" type="matrix" values="0 0 0 0 0 0 0 0 0 0 0 0 0 0 0 0 0 0 127 0" result="hardAlpha"/>
<feOffset dy="4"/>
<feGaussianBlur stdDeviation="2"/>
<feComposite in2="hardAlpha" operator="arithmetic" k2="-1" k3="1"/>
<feColorMatrix type="matrix" values="0 0 0 0 0 0 0 0 0 0 0 0 0 0 0 0 0 0 0.35 0"/>
<feBlend mode="normal" in2="shape" result="effect1_innerShadow_22_309"/>
</filter>
<filter id="filter3_dii_22_309" x="13.0371" y="20.1869" width="17.2598" height="17.5758" filterUnits="userSpaceOnUse" color-interpolation-filters="sRGB">
<feFlood flood-opacity="0" result="BackgroundImageFix"/>
<feColorMatrix in="SourceAlpha" type="matrix" values="0 0 0 0 0 0 0 0 0 0 0 0 0 0 0 0 0 0 127 0" result="hardAlpha"/>
<feOffset dy="4"/>
<feGaussianBlur stdDeviation="2"/>
<feComposite in2="hardAlpha" operator="out"/>
<feColorMatrix type="matrix" values="0 0 0 0 0 0 0 0 0 0 0 0 0 0 0 0 0 0 0.25 0"/>
<feBlend mode="normal" in2="BackgroundImageFix" result="effect1_dropShadow_22_309"/>
<feBlend mode="normal" in="SourceGraphic" in2="effect1_dropShadow_22_309" result="shape"/>
<feColorMatrix in="SourceAlpha" type="matrix" values="0 0 0 0 0 0 0 0 0 0 0 0 0 0 0 0 0 0 127 0" result="hardAlpha"/>
<feOffset dx="6"/>
<feGaussianBlur stdDeviation="2"/>
<feComposite in2="hardAlpha" operator="arithmetic" k2="-1" k3="1"/>
<feColorMatrix type="matrix" values="0 0 0 0 1 0 0 0 0 1 0 0 0 0 1 0 0 0 0.3 0"/>
<feBlend mode="normal" in2="shape" result="effect2_innerShadow_22_309"/>
<feColorMatrix in="SourceAlpha" type="matrix" values="0 0 0 0 0 0 0 0 0 0 0 0 0 0 0 0 0 0 127 0" result="hardAlpha"/>
<feOffset dx="-4" dy="-9"/>
<feGaussianBlur stdDeviation="2"/>
<feComposite in2="hardAlpha" operator="arithmetic" k2="-1" k3="1"/>
<feColorMatrix type="matrix" values="0 0 0 0 1 0 0 0 0 1 0 0 0 0 1 0 0 0 0.1 0"/>
<feBlend mode="normal" in2="effect2_innerShadow_22_309" result="effect3_innerShadow_22_309"/>
</filter>
<filter id="filter4_dii_22_309" x="2.47559" y="12.4493" width="16.833" height="17.9237" filterUnits="userSpaceOnUse" color-interpolation-filters="sRGB">
<feFlood flood-opacity="0" result="BackgroundImageFix"/>
<feColorMatrix in="SourceAlpha" type="matrix" values="0 0 0 0 0 0 0 0 0 0 0 0 0 0 0 0 0 0 127 0" result="hardAlpha"/>
<feOffset dy="4"/>
<feGaussianBlur stdDeviation="2"/>
<feComposite in2="hardAlpha" operator="out"/>
<feColorMatrix type="matrix" values="0 0 0 0 0 0 0 0 0 0 0 0 0 0 0 0 0 0 0.25 0"/>
<feBlend mode="normal" in2="BackgroundImageFix" result="effect1_dropShadow_22_309"/>
<feBlend mode="normal" in="SourceGraphic" in2="effect1_dropShadow_22_309" result="shape"/>
<feColorMatrix in="SourceAlpha" type="matrix" values="0 0 0 0 0 0 0 0 0 0 0 0 0 0 0 0 0 0 127 0" result="hardAlpha"/>
<feOffset dy="6"/>
<feGaussianBlur stdDeviation="2"/>
<feComposite in2="hardAlpha" operator="arithmetic" k2="-1" k3="1"/>
<feColorMatrix type="matrix" values="0 0 0 0 1 0 0 0 0 1 0 0 0 0 1 0 0 0 0.3 0"/>
<feBlend mode="normal" in2="shape" result="effect2_innerShadow_22_309"/>
<feColorMatrix in="SourceAlpha" type="matrix" values="0 0 0 0 0 0 0 0 0 0 0 0 0 0 0 0 0 0 127 0" result="hardAlpha"/>
<feOffset dx="-4" dy="-9"/>
<feGaussianBlur stdDeviation="2"/>
<feComposite in2="hardAlpha" operator="arithmetic" k2="-1" k3="1"/>
<feColorMatrix type="matrix" values="0 0 0 0 1 0 0 0 0 1 0 0 0 0 1 0 0 0 0.1 0"/>
<feBlend mode="normal" in2="effect2_innerShadow_22_309" result="effect3_innerShadow_22_309"/>
</filter>
<filter id="filter5_dii_22_309" x="8.91602" y="5.76147" width="17.3135" height="18.2" filterUnits="userSpaceOnUse" color-interpolation-filters="sRGB">
<feFlood flood-opacity="0" result="BackgroundImageFix"/>
<feColorMatrix in="SourceAlpha" type="matrix" values="0 0 0 0 0 0 0 0 0 0 0 0 0 0 0 0 0 0 127 0" result="hardAlpha"/>
<feOffset dy="4"/>
<feGaussianBlur stdDeviation="2"/>
<feComposite in2="hardAlpha" operator="out"/>
<feColorMatrix type="matrix" values="0 0 0 0 0 0 0 0 0 0 0 0 0 0 0 0 0 0 0.25 0"/>
<feBlend mode="normal" in2="BackgroundImageFix" result="effect1_dropShadow_22_309"/>
<feBlend mode="normal" in="SourceGraphic" in2="effect1_dropShadow_22_309" result="shape"/>
<feColorMatrix in="SourceAlpha" type="matrix" values="0 0 0 0 0 0 0 0 0 0 0 0 0 0 0 0 0 0 127 0" result="hardAlpha"/>
<feOffset dy="6"/>
<feGaussianBlur stdDeviation="2"/>
<feComposite in2="hardAlpha" operator="arithmetic" k2="-1" k3="1"/>
<feColorMatrix type="matrix" values="0 0 0 0 1 0 0 0 0 1 0 0 0 0 1 0 0 0 0.3 0"/>
<feBlend mode="normal" in2="shape" result="effect2_innerShadow_22_309"/>
<feColorMatrix in="SourceAlpha" type="matrix" values="0 0 0 0 0 0 0 0 0 0 0 0 0 0 0 0 0 0 127 0" result="hardAlpha"/>
<feOffset dx="-4" dy="-9"/>
<feGaussianBlur stdDeviation="2"/>
<feComposite in2="hardAlpha" operator="arithmetic" k2="-1" k3="1"/>
<feColorMatrix type="matrix" values="0 0 0 0 1 0 0 0 0 1 0 0 0 0 1 0 0 0 0.1 0"/>
<feBlend mode="normal" in2="effect2_innerShadow_22_309" result="effect3_innerShadow_22_309"/>
</filter>
<filter id="filter6_dii_22_309" x="13.333" y="13.4933" width="12.8926" height="17.1367" filterUnits="userSpaceOnUse" color-interpolation-filters="sRGB">
<feFlood flood-opacity="0" result="BackgroundImageFix"/>
<feColorMatrix in="SourceAlpha" type="matrix" values="0 0 0 0 0 0 0 0 0 0 0 0 0 0 0 0 0 0 127 0" result="hardAlpha"/>
<feOffset dy="4"/>
<feGaussianBlur stdDeviation="2"/>
<feComposite in2="hardAlpha" operator="out"/>
<feColorMatrix type="matrix" values="0 0 0 0 0 0 0 0 0 0 0 0 0 0 0 0 0 0 0.25 0"/>
<feBlend mode="normal" in2="BackgroundImageFix" result="effect1_dropShadow_22_309"/>
<feBlend mode="normal" in="SourceGraphic" in2="effect1_dropShadow_22_309" result="shape"/>
<feColorMatrix in="SourceAlpha" type="matrix" values="0 0 0 0 0 0 0 0 0 0 0 0 0 0 0 0 0 0 127 0" result="hardAlpha"/>
<feOffset dy="4"/>
<feGaussianBlur stdDeviation="2"/>
<feComposite in2="hardAlpha" operator="arithmetic" k2="-1" k3="1"/>
<feColorMatrix type="matrix" values="0 0 0 0 1 0 0 0 0 1 0 0 0 0 1 0 0 0 0.3 0"/>
<feBlend mode="normal" in2="shape" result="effect2_innerShadow_22_309"/>
<feColorMatrix in="SourceAlpha" type="matrix" values="0 0 0 0 0 0 0 0 0 0 0 0 0 0 0 0 0 0 127 0" result="hardAlpha"/>
<feOffset dx="-4" dy="-9"/>
<feGaussianBlur stdDeviation="2"/>
<feComposite in2="hardAlpha" operator="arithmetic" k2="-1" k3="1"/>
<feColorMatrix type="matrix" values="0 0 0 0 1 0 0 0 0 1 0 0 0 0 1 0 0 0 0.1 0"/>
<feBlend mode="normal" in2="effect2_innerShadow_22_309" result="effect3_innerShadow_22_309"/>
</filter>
<filter id="filter7_i_22_309" x="13.916" y="14.0277" width="5.53516" height="9.47791" filterUnits="userSpaceOnUse" color-interpolation-filters="sRGB">
<feFlood flood-opacity="0" result="BackgroundImageFix"/>
<feBlend mode="normal" in="SourceGraphic" in2="BackgroundImageFix" result="shape"/>
<feColorMatrix in="SourceAlpha" type="matrix" values="0 0 0 0 0 0 0 0 0 0 0 0 0 0 0 0 0 0 127 0" result="hardAlpha"/>
<feOffset dy="4"/>
<feGaussianBlur stdDeviation="2"/>
<feComposite in2="hardAlpha" operator="arithmetic" k2="-1" k3="1"/>
<feColorMatrix type="matrix" values="0 0 0 0 0 0 0 0 0 0 0 0 0 0 0 0 0 0 0.35 0"/>
<feBlend mode="normal" in2="shape" result="effect1_innerShadow_22_309"/>
</filter>
<filter id="filter8_i_22_309" x="12.4209" y="21.4237" width="6.11816" height="13.2518" filterUnits="userSpaceOnUse" color-interpolation-filters="sRGB">
<feFlood flood-opacity="0" result="BackgroundImageFix"/>
<feBlend mode="normal" in="SourceGraphic" in2="BackgroundImageFix" result="shape"/>
<feColorMatrix in="SourceAlpha" type="matrix" values="0 0 0 0 0 0 0 0 0 0 0 0 0 0 0 0 0 0 127 0" result="hardAlpha"/>
<feOffset dy="4"/>
<feGaussianBlur stdDeviation="2"/>
<feComposite in2="hardAlpha" operator="arithmetic" k2="-1" k3="1"/>
<feColorMatrix type="matrix" values="0 0 0 0 0 0 0 0 0 0 0 0 0 0 0 0 0 0 0.35 0"/>
<feBlend mode="normal" in2="shape" result="effect1_innerShadow_22_309"/>
</filter>
<filter id="filter9_dii_22_309" x="20.1777" y="13.5048" width="16.833" height="17.9237" filterUnits="userSpaceOnUse" color-interpolation-filters="sRGB">
<feFlood flood-opacity="0" result="BackgroundImageFix"/>
<feColorMatrix in="SourceAlpha" type="matrix" values="0 0 0 0 0 0 0 0 0 0 0 0 0 0 0 0 0 0 127 0" result="hardAlpha"/>
<feOffset dy="4"/>
<feGaussianBlur stdDeviation="2"/>
<feComposite in2="hardAlpha" operator="out"/>
<feColorMatrix type="matrix" values="0 0 0 0 0 0 0 0 0 0 0 0 0 0 0 0 0 0 0.25 0"/>
<feBlend mode="normal" in2="BackgroundImageFix" result="effect1_dropShadow_22_309"/>
<feBlend mode="normal" in="SourceGraphic" in2="effect1_dropShadow_22_309" result="shape"/>
<feColorMatrix in="SourceAlpha" type="matrix" values="0 0 0 0 0 0 0 0 0 0 0 0 0 0 0 0 0 0 127 0" result="hardAlpha"/>
<feOffset dy="6"/>
<feGaussianBlur stdDeviation="2"/>
<feComposite in2="hardAlpha" operator="arithmetic" k2="-1" k3="1"/>
<feColorMatrix type="matrix" values="0 0 0 0 1 0 0 0 0 1 0 0 0 0 1 0 0 0 0.3 0"/>
<feBlend mode="normal" in2="shape" result="effect2_innerShadow_22_309"/>
<feColorMatrix in="SourceAlpha" type="matrix" values="0 0 0 0 0 0 0 0 0 0 0 0 0 0 0 0 0 0 127 0" result="hardAlpha"/>
<feOffset dx="-4" dy="-9"/>
<feGaussianBlur stdDeviation="2"/>
<feComposite in2="hardAlpha" operator="arithmetic" k2="-1" k3="1"/>
<feColorMatrix type="matrix" values="0 0 0 0 1 0 0 0 0 1 0 0 0 0 1 0 0 0 0.1 0"/>
<feBlend mode="normal" in2="effect2_innerShadow_22_309" result="effect3_innerShadow_22_309"/>
</filter>
<filter id="filter10_i_22_309" x="28.2275" y="15.9896" width="5.25098" height="7.66687" filterUnits="userSpaceOnUse" color-interpolation-filters="sRGB">
<feFlood flood-opacity="0" result="BackgroundImageFix"/>
<feBlend mode="normal" in="SourceGraphic" in2="BackgroundImageFix" result="shape"/>
<feColorMatrix in="SourceAlpha" type="matrix" values="0 0 0 0 0 0 0 0 0 0 0 0 0 0 0 0 0 0 127 0" result="hardAlpha"/>
<feOffset dy="4"/>
<feGaussianBlur stdDeviation="2"/>
<feComposite in2="hardAlpha" operator="arithmetic" k2="-1" k3="1"/>
<feColorMatrix type="matrix" values="0 0 0 0 0 0 0 0 0 0 0 0 0 0 0 0 0 0 0.35 0"/>
<feBlend mode="normal" in2="shape" result="effect1_innerShadow_22_309"/>
</filter>
<filter id="filter11_f_22_309" x="0" y="0" width="40" height="40" filterUnits="userSpaceOnUse" color-interpolation-filters="sRGB">
<feFlood flood-opacity="0" result="BackgroundImageFix"/>
<feBlend mode="normal" in="SourceGraphic" in2="BackgroundImageFix" result="shape"/>
<feGaussianBlur stdDeviation="2" result="effect1_foregroundBlur_22_309"/>
</filter>
<linearGradient id="paint0_linear_22_309" x1="21.3462" y1="17.9336" x2="20.8219" y2="11.6172" gradientUnits="userSpaceOnUse">
<stop stop-color="white"/>
<stop offset="1" stop-color="white" stop-opacity="0"/>
</linearGradient>
<linearGradient id="paint1_linear_22_309" x1="11.5347" y1="21.978" x2="6.74132" y2="20.6049" gradientUnits="userSpaceOnUse">
<stop stop-color="white"/>
<stop offset="1" stop-color="white" stop-opacity="0"/>
</linearGradient>
<linearGradient id="paint2_linear_22_309" x1="25.2662" y1="21.229" x2="20.6975" y2="25.4731" gradientUnits="userSpaceOnUse">
<stop stop-color="white"/>
<stop offset="1" stop-color="white" stop-opacity="0"/>
</linearGradient>
<linearGradient id="paint3_linear_22_309" x1="17.3023" y1="24.7742" x2="26.7393" y2="26.6466" gradientUnits="userSpaceOnUse">
<stop stop-color="#2B2C2B"/>
<stop offset="1" stop-color="#2B2C2B" stop-opacity="0"/>
</linearGradient>
<linearGradient id="paint4_linear_22_309" x1="15.5795" y1="22.1028" x2="6.76663" y2="18.5078" gradientUnits="userSpaceOnUse">
<stop stop-color="#2B2C2B"/>
<stop offset="1" stop-color="#2B2C2B" stop-opacity="0"/>
</linearGradient>
<linearGradient id="paint5_linear_22_309" x1="10.112" y1="14.2137" x2="13.7071" y2="22.727" gradientUnits="userSpaceOnUse">
<stop stop-color="white"/>
<stop offset="1" stop-color="white" stop-opacity="0"/>
</linearGradient>
<linearGradient id="paint6_linear_22_309" x1="14.5308" y1="14.9876" x2="21.4962" y2="14.7878" gradientUnits="userSpaceOnUse">
<stop stop-color="#2B2C2B"/>
<stop offset="1" stop-color="#2B2C2B" stop-opacity="0"/>
</linearGradient>
<linearGradient id="paint7_linear_22_309" x1="17.6511" y1="17.584" x2="22.07" y2="22.3774" gradientUnits="userSpaceOnUse">
<stop stop-color="#2B2C2B"/>
<stop offset="1" stop-color="#2B2C2B" stop-opacity="0"/>
</linearGradient>
<linearGradient id="paint8_linear_22_309" x1="14.3805" y1="18.9821" x2="18.9243" y2="14.4633" gradientUnits="userSpaceOnUse">
<stop stop-color="white"/>
<stop offset="1" stop-color="white" stop-opacity="0"/>
</linearGradient>
<linearGradient id="paint9_linear_22_309" x1="16.9775" y1="22.2276" x2="17.6516" y2="28.2444" gradientUnits="userSpaceOnUse">
<stop stop-color="white"/>
<stop offset="1" stop-color="white" stop-opacity="0"/>
</linearGradient>
<linearGradient id="paint10_linear_22_309" x1="32.5699" y1="20.2466" x2="24.4311" y2="18.1994" gradientUnits="userSpaceOnUse">
<stop stop-color="#2B2C2B"/>
<stop offset="1" stop-opacity="0"/>
<stop offset="1" stop-color="#2B2C2B" stop-opacity="0"/>
</linearGradient>
<linearGradient id="paint11_linear_22_309" x1="32.6843" y1="18.8976" x2="28.9145" y2="17.8989" gradientUnits="userSpaceOnUse">
<stop stop-color="white"/>
<stop offset="1" stop-color="white" stop-opacity="0"/>
</linearGradient>
</defs>
</svg>
