<svg width="1208" height="1208" viewBox="0 0 1208 1208" fill="none" xmlns="http://www.w3.org/2000/svg">
<g filter="url(#filter0_i_21_322)">
<path d="M868.364 384.824L690.241 547.081C677.689 558.516 658.28 557.751 646.666 545.363C634.955 532.871 635.563 513.258 648.025 501.515L788.773 368.887C805.73 352.907 805.495 325.873 788.262 310.191L753.808 278.838C738.422 264.837 714.873 264.966 699.642 279.134L665.514 310.881C654.563 321.068 637.598 321.054 626.663 310.849C614.447 299.447 614.619 280.029 627.035 268.845L697.922 204.992C713.919 190.583 738.451 191.42 753.428 206.886L870.162 327.426C885.863 343.639 885.049 369.625 868.364 384.824Z" fill="#999999"/>
<path d="M868.364 384.824L690.241 547.081C677.689 558.516 658.28 557.751 646.666 545.363C634.955 532.871 635.563 513.258 648.025 501.515L788.773 368.887C805.73 352.907 805.495 325.873 788.262 310.191L753.808 278.838C738.422 264.837 714.873 264.966 699.642 279.134L665.514 310.881C654.563 321.068 637.598 321.054 626.663 310.849C614.447 299.447 614.619 280.029 627.035 268.845L697.922 204.992C713.919 190.583 738.451 191.42 753.428 206.886L870.162 327.426C885.863 343.639 885.049 369.625 868.364 384.824Z" fill="url(#paint0_linear_21_322)" fill-opacity="0.6"/>
</g>
<g filter="url(#filter1_i_21_322)">
<path d="M187.384 745.624L106.998 654.455C91.2199 636.559 105.921 608.648 129.603 611.536C135.454 612.249 140.889 614.934 145.011 619.148L198.233 673.553C211.656 687.273 233.828 686.969 246.869 672.885L251.855 667.501C261.713 656.853 278.34 656.226 288.974 666.099C299.913 676.258 300.189 693.483 289.58 703.986L245.529 747.596C229.185 763.777 202.595 762.875 187.384 745.624Z" fill="#999999"/>
<path d="M187.384 745.624L106.998 654.455C91.2199 636.559 105.921 608.648 129.603 611.536C135.454 612.249 140.889 614.934 145.011 619.148L198.233 673.553C211.656 687.273 233.828 686.969 246.869 672.885L251.855 667.501C261.713 656.853 278.34 656.226 288.974 666.099C299.913 676.258 300.189 693.483 289.58 703.986L245.529 747.596C229.185 763.777 202.595 762.875 187.384 745.624Z" fill="url(#paint1_linear_21_322)" fill-opacity="0.6"/>
</g>
<g filter="url(#filter2_i_21_322)">
<path d="M764.635 640.157L621.333 777.784C608.702 789.915 608.498 810.054 620.882 822.437C632.829 834.385 652.108 834.677 664.413 823.096L809.097 686.923C822.352 674.448 822.669 653.484 809.799 640.613C797.378 628.193 777.304 627.99 764.635 640.157Z" fill="#999999"/>
<path d="M764.635 640.157L621.333 777.784C608.702 789.915 608.498 810.054 620.882 822.437C632.829 834.385 652.108 834.677 664.413 823.096L809.097 686.923C822.352 674.448 822.669 653.484 809.799 640.613C797.378 628.193 777.304 627.99 764.635 640.157Z" fill="url(#paint2_linear_21_322)" fill-opacity="0.6"/>
</g>
<g filter="url(#filter3_dii_21_322)">
<path d="M682.788 906.96L545.052 769.909C533.099 758.016 513.775 758.04 501.852 769.963C489.96 781.855 489.9 801.116 501.717 813.082L675.619 989.177C690.927 1004.68 715.823 1005.08 731.622 990.078L841.474 885.78C857.235 870.816 858.164 846.003 843.564 829.903L791.091 772.036C779.31 759.043 759.165 758.233 746.378 770.237C733.851 781.996 733.114 801.644 744.724 814.309L760.164 831.153C774.441 846.727 774.143 870.719 759.484 885.934L739.808 906.358C724.306 922.449 698.627 922.72 682.788 906.96Z" fill="#1569EF"/>
<path d="M682.788 906.96L545.052 769.909C533.099 758.016 513.775 758.04 501.852 769.963C489.96 781.855 489.9 801.116 501.717 813.082L675.619 989.177C690.927 1004.68 715.823 1005.08 731.622 990.078L841.474 885.78C857.235 870.816 858.164 846.003 843.564 829.903L791.091 772.036C779.31 759.043 759.165 758.233 746.378 770.237C733.851 781.996 733.114 801.644 744.724 814.309L760.164 831.153C774.441 846.727 774.143 870.719 759.484 885.934L739.808 906.358C724.306 922.449 698.627 922.72 682.788 906.96Z" fill="url(#paint3_linear_21_322)" fill-opacity="0.6"/>
</g>
<g filter="url(#filter4_dii_21_322)">
<path d="M249.802 556.518L375.9 683.944C388.338 696.512 408.824 695.898 420.486 682.608C431.019 670.606 430.506 652.511 419.312 641.125L249.393 468.289C233.781 452.409 208.205 452.337 192.503 468.13L106.087 555.049C87.4059 573.838 98.6104 605.893 124.928 608.953C134.752 610.095 144.546 606.593 151.418 599.481L192.605 556.858C208.199 540.72 234.016 540.566 249.802 556.518Z" fill="#1569EF"/>
<path d="M249.802 556.518L375.9 683.944C388.338 696.512 408.824 695.898 420.486 682.608C431.019 670.606 430.506 652.511 419.312 641.125L249.393 468.289C233.781 452.409 208.205 452.337 192.503 468.13L106.087 555.049C87.4059 573.838 98.6104 605.893 124.928 608.953C134.752 610.095 144.546 606.593 151.418 599.481L192.605 556.858C208.199 540.72 234.016 540.566 249.802 556.518Z" fill="url(#paint4_linear_21_322)" fill-opacity="0.6"/>
<path d="M249.802 556.518L375.9 683.944C388.338 696.512 408.824 695.898 420.486 682.608C431.019 670.606 430.506 652.511 419.312 641.125L249.393 468.289C233.781 452.409 208.205 452.337 192.503 468.13L106.087 555.049C87.4059 573.838 98.6104 605.893 124.928 608.953C134.752 610.095 144.546 606.593 151.418 599.481L192.605 556.858C208.199 540.72 234.016 540.566 249.802 556.518Z" fill="url(#paint5_linear_21_322)" fill-opacity="0.2"/>
</g>
<g filter="url(#filter5_dii_21_322)">
<path d="M412.781 366.566L444.739 401.219C455.782 413.193 455.507 431.719 444.114 443.359C431.786 455.955 411.394 455.557 399.567 442.49L331.104 366.85C316.687 350.921 317.428 326.447 332.784 311.42L451.133 195.602C467.169 179.909 492.974 180.473 508.309 196.852L678.942 379.103C690.854 391.826 690.424 411.733 677.973 423.93C665.101 436.539 644.37 436.071 632.08 422.894L501.12 282.484C485.68 265.929 459.591 265.475 443.584 281.482L413.902 311.164C398.726 326.34 398.231 350.789 412.781 366.566Z" fill="#1569EF"/>
<path d="M412.781 366.566L444.739 401.219C455.782 413.193 455.507 431.719 444.114 443.359C431.786 455.955 411.394 455.557 399.567 442.49L331.104 366.85C316.687 350.921 317.428 326.447 332.784 311.42L451.133 195.602C467.169 179.909 492.974 180.473 508.309 196.852L678.942 379.103C690.854 391.826 690.424 411.733 677.973 423.93C665.101 436.539 644.37 436.071 632.08 422.894L501.12 282.484C485.68 265.929 459.591 265.475 443.584 281.482L413.902 311.164C398.726 326.34 398.231 350.789 412.781 366.566Z" fill="url(#paint6_linear_21_322)" fill-opacity="0.6"/>
</g>
<g filter="url(#filter6_dii_21_322)">
<path d="M679.415 651.988L556.185 519.603C544.823 507.397 525.707 506.74 513.533 518.137C501.407 529.489 500.754 548.515 512.075 560.672L635.331 693.032C646.864 705.417 666.334 705.87 678.432 694.036C690.113 682.608 690.55 663.949 679.415 651.988Z" fill="#1569EF"/>
<path d="M679.415 651.988L556.185 519.603C544.823 507.397 525.707 506.74 513.533 518.137C501.407 529.489 500.754 548.515 512.075 560.672L635.331 693.032C646.864 705.417 666.334 705.87 678.432 694.036C690.113 682.608 690.55 663.949 679.415 651.988Z" fill="url(#paint7_linear_21_322)" fill-opacity="0.6"/>
</g>
<g filter="url(#filter7_i_21_322)">
<path d="M573.448 436.48L429.028 576.611C416.922 588.357 397.692 588.416 385.514 576.746C372.827 564.588 372.612 544.377 385.037 531.952L527.329 389.661C540.526 376.464 562.052 376.894 574.711 390.608C586.804 403.709 586.244 424.064 573.448 436.48Z" fill="#999999"/>
<path d="M573.448 436.48L429.028 576.611C416.922 588.357 397.692 588.416 385.514 576.746C372.827 564.588 372.612 544.377 385.037 531.952L527.329 389.661C540.526 376.464 562.052 376.894 574.711 390.608C586.804 403.709 586.244 424.064 573.448 436.48Z" fill="url(#paint8_linear_21_322)" fill-opacity="0.6"/>
</g>
<g filter="url(#filter8_i_21_322)">
<path d="M378.128 841.228L521.406 710.913C533.919 699.532 534.898 680.183 523.596 667.597C512.161 654.862 492.531 653.908 479.915 665.473L384.865 752.602L297.132 833.024C280.56 848.215 279.757 874.076 295.356 890.265L412.049 1011.37C427.494 1027.4 453.052 1027.74 468.914 1012.13L540.783 941.38C551.516 930.815 552.086 913.692 542.081 902.436C531.395 890.415 512.85 889.713 501.286 900.891L466.796 934.232C450.988 949.513 425.811 949.171 410.424 933.466L376.471 898.813C360.602 882.618 361.354 856.484 378.128 841.228Z" fill="#999999"/>
<path d="M378.128 841.228L521.406 710.913C533.919 699.532 534.898 680.183 523.596 667.597C512.161 654.862 492.531 653.908 479.915 665.473L384.865 752.602L297.132 833.024C280.56 848.215 279.757 874.076 295.356 890.265L412.049 1011.37C427.494 1027.4 453.052 1027.74 468.914 1012.13L540.783 941.38C551.516 930.815 552.086 913.692 542.081 902.436C531.395 890.415 512.85 889.713 501.286 900.891L466.796 934.232C450.988 949.513 425.811 949.171 410.424 933.466L376.471 898.813C360.602 882.618 361.354 856.484 378.128 841.228Z" fill="url(#paint9_linear_21_322)" fill-opacity="0.6"/>
</g>
<g filter="url(#filter9_dii_21_322)">
<path d="M938.945 646.895L812.847 519.469C800.409 506.901 779.924 507.515 768.261 520.805C757.729 532.807 758.241 550.902 769.435 562.288L939.354 735.124C954.966 751.004 980.542 751.076 996.244 735.283L1082.66 648.364C1101.34 629.575 1090.14 597.52 1063.82 594.46C1054 593.318 1044.2 596.82 1037.33 603.932L996.142 646.555C980.548 662.693 954.731 662.847 938.945 646.895Z" fill="#1569EF"/>
<path d="M938.945 646.895L812.847 519.469C800.409 506.901 779.924 507.515 768.261 520.805C757.729 532.807 758.241 550.902 769.435 562.288L939.354 735.124C954.966 751.004 980.542 751.076 996.244 735.283L1082.66 648.364C1101.34 629.575 1090.14 597.52 1063.82 594.46C1054 593.318 1044.2 596.82 1037.33 603.932L996.142 646.555C980.548 662.693 954.731 662.847 938.945 646.895Z" fill="url(#paint10_linear_21_322)" fill-opacity="0.6"/>
</g>
<g filter="url(#filter10_i_21_322)">
<path d="M1022.49 456.823L1102.88 547.992C1118.65 565.887 1103.95 593.799 1080.27 590.911C1074.42 590.198 1068.99 587.513 1064.86 583.299L1011.64 528.894C998.219 515.173 976.046 515.478 963.005 529.562L958.019 534.946C948.161 545.593 931.534 546.221 920.9 536.347C909.961 526.189 909.685 508.964 920.294 498.461L964.345 454.851C980.689 438.67 1007.28 439.572 1022.49 456.823Z" fill="#999999"/>
<path d="M1022.49 456.823L1102.88 547.992C1118.65 565.887 1103.95 593.799 1080.27 590.911C1074.42 590.198 1068.99 587.513 1064.86 583.299L1011.64 528.894C998.219 515.173 976.046 515.478 963.005 529.562L958.019 534.946C948.161 545.593 931.534 546.221 920.9 536.347C909.961 526.189 909.685 508.964 920.294 498.461L964.345 454.851C980.689 438.67 1007.28 439.572 1022.49 456.823Z" fill="url(#paint11_linear_21_322)" fill-opacity="0.6"/>
</g>
<g filter="url(#filter11_f_21_322)">
<circle cx="604" cy="604" r="600" fill="white" fill-opacity="0.1"/>
</g>
<defs>
<filter id="filter0_i_21_322" x="617.611" y="194.712" width="263.816" height="364.467" filterUnits="userSpaceOnUse" color-interpolation-filters="sRGB">
<feFlood flood-opacity="0" result="BackgroundImageFix"/>
<feBlend mode="normal" in="SourceGraphic" in2="BackgroundImageFix" result="shape"/>
<feColorMatrix in="SourceAlpha" type="matrix" values="0 0 0 0 0 0 0 0 0 0 0 0 0 0 0 0 0 0 127 0" result="hardAlpha"/>
<feOffset dy="4"/>
<feGaussianBlur stdDeviation="2"/>
<feComposite in2="hardAlpha" operator="arithmetic" k2="-1" k3="1"/>
<feColorMatrix type="matrix" values="0 0 0 0 0 0 0 0 0 0 0 0 0 0 0 0 0 0 0.35 0"/>
<feBlend mode="normal" in2="shape" result="effect1_innerShadow_21_322"/>
</filter>
<filter id="filter1_i_21_322" x="100.437" y="611.328" width="196.925" height="151.842" filterUnits="userSpaceOnUse" color-interpolation-filters="sRGB">
<feFlood flood-opacity="0" result="BackgroundImageFix"/>
<feBlend mode="normal" in="SourceGraphic" in2="BackgroundImageFix" result="shape"/>
<feColorMatrix in="SourceAlpha" type="matrix" values="0 0 0 0 0 0 0 0 0 0 0 0 0 0 0 0 0 0 127 0" result="hardAlpha"/>
<feOffset dy="4"/>
<feGaussianBlur stdDeviation="2"/>
<feComposite in2="hardAlpha" operator="arithmetic" k2="-1" k3="1"/>
<feColorMatrix type="matrix" values="0 0 0 0 0 0 0 0 0 0 0 0 0 0 0 0 0 0 0.35 0"/>
<feBlend mode="normal" in2="shape" result="effect1_innerShadow_21_322"/>
</filter>
<filter id="filter2_i_21_322" x="611.726" y="631.163" width="207.523" height="204.43" filterUnits="userSpaceOnUse" color-interpolation-filters="sRGB">
<feFlood flood-opacity="0" result="BackgroundImageFix"/>
<feBlend mode="normal" in="SourceGraphic" in2="BackgroundImageFix" result="shape"/>
<feColorMatrix in="SourceAlpha" type="matrix" values="0 0 0 0 0 0 0 0 0 0 0 0 0 0 0 0 0 0 127 0" result="hardAlpha"/>
<feOffset dy="4"/>
<feGaussianBlur stdDeviation="2"/>
<feComposite in2="hardAlpha" operator="arithmetic" k2="-1" k3="1"/>
<feColorMatrix type="matrix" values="0 0 0 0 0 0 0 0 0 0 0 0 0 0 0 0 0 0 0.35 0"/>
<feBlend mode="normal" in2="shape" result="effect1_innerShadow_21_322"/>
</filter>
<filter id="filter3_dii_21_322" x="488.894" y="757.005" width="369.039" height="252.065" filterUnits="userSpaceOnUse" color-interpolation-filters="sRGB">
<feFlood flood-opacity="0" result="BackgroundImageFix"/>
<feColorMatrix in="SourceAlpha" type="matrix" values="0 0 0 0 0 0 0 0 0 0 0 0 0 0 0 0 0 0 127 0" result="hardAlpha"/>
<feOffset dy="4"/>
<feGaussianBlur stdDeviation="2"/>
<feComposite in2="hardAlpha" operator="out"/>
<feColorMatrix type="matrix" values="0 0 0 0 0 0 0 0 0 0 0 0 0 0 0 0 0 0 0.25 0"/>
<feBlend mode="normal" in2="BackgroundImageFix" result="effect1_dropShadow_21_322"/>
<feBlend mode="normal" in="SourceGraphic" in2="effect1_dropShadow_21_322" result="shape"/>
<feColorMatrix in="SourceAlpha" type="matrix" values="0 0 0 0 0 0 0 0 0 0 0 0 0 0 0 0 0 0 127 0" result="hardAlpha"/>
<feOffset dx="6"/>
<feGaussianBlur stdDeviation="2"/>
<feComposite in2="hardAlpha" operator="arithmetic" k2="-1" k3="1"/>
<feColorMatrix type="matrix" values="0 0 0 0 1 0 0 0 0 1 0 0 0 0 1 0 0 0 0.3 0"/>
<feBlend mode="normal" in2="shape" result="effect2_innerShadow_21_322"/>
<feColorMatrix in="SourceAlpha" type="matrix" values="0 0 0 0 0 0 0 0 0 0 0 0 0 0 0 0 0 0 127 0" result="hardAlpha"/>
<feOffset dx="-4" dy="-9"/>
<feGaussianBlur stdDeviation="2"/>
<feComposite in2="hardAlpha" operator="arithmetic" k2="-1" k3="1"/>
<feColorMatrix type="matrix" values="0 0 0 0 1 0 0 0 0 1 0 0 0 0 1 0 0 0 0.1 0"/>
<feBlend mode="normal" in2="effect2_innerShadow_21_322" result="effect3_innerShadow_21_322"/>
</filter>
<filter id="filter4_dii_21_322" x="92.8154" y="452.332" width="339.243" height="248.655" filterUnits="userSpaceOnUse" color-interpolation-filters="sRGB">
<feFlood flood-opacity="0" result="BackgroundImageFix"/>
<feColorMatrix in="SourceAlpha" type="matrix" values="0 0 0 0 0 0 0 0 0 0 0 0 0 0 0 0 0 0 127 0" result="hardAlpha"/>
<feOffset dy="4"/>
<feGaussianBlur stdDeviation="2"/>
<feComposite in2="hardAlpha" operator="out"/>
<feColorMatrix type="matrix" values="0 0 0 0 0 0 0 0 0 0 0 0 0 0 0 0 0 0 0.25 0"/>
<feBlend mode="normal" in2="BackgroundImageFix" result="effect1_dropShadow_21_322"/>
<feBlend mode="normal" in="SourceGraphic" in2="effect1_dropShadow_21_322" result="shape"/>
<feColorMatrix in="SourceAlpha" type="matrix" values="0 0 0 0 0 0 0 0 0 0 0 0 0 0 0 0 0 0 127 0" result="hardAlpha"/>
<feOffset dy="6"/>
<feGaussianBlur stdDeviation="2"/>
<feComposite in2="hardAlpha" operator="arithmetic" k2="-1" k3="1"/>
<feColorMatrix type="matrix" values="0 0 0 0 1 0 0 0 0 1 0 0 0 0 1 0 0 0 0.3 0"/>
<feBlend mode="normal" in2="shape" result="effect2_innerShadow_21_322"/>
<feColorMatrix in="SourceAlpha" type="matrix" values="0 0 0 0 0 0 0 0 0 0 0 0 0 0 0 0 0 0 127 0" result="hardAlpha"/>
<feOffset dx="-4" dy="-9"/>
<feGaussianBlur stdDeviation="2"/>
<feComposite in2="hardAlpha" operator="arithmetic" k2="-1" k3="1"/>
<feColorMatrix type="matrix" values="0 0 0 0 1 0 0 0 0 1 0 0 0 0 1 0 0 0 0.1 0"/>
<feBlend mode="normal" in2="effect2_innerShadow_21_322" result="effect3_innerShadow_21_322"/>
</filter>
<filter id="filter5_dii_21_322" x="316.761" y="180.19" width="374.841" height="280.363" filterUnits="userSpaceOnUse" color-interpolation-filters="sRGB">
<feFlood flood-opacity="0" result="BackgroundImageFix"/>
<feColorMatrix in="SourceAlpha" type="matrix" values="0 0 0 0 0 0 0 0 0 0 0 0 0 0 0 0 0 0 127 0" result="hardAlpha"/>
<feOffset dy="4"/>
<feGaussianBlur stdDeviation="2"/>
<feComposite in2="hardAlpha" operator="out"/>
<feColorMatrix type="matrix" values="0 0 0 0 0 0 0 0 0 0 0 0 0 0 0 0 0 0 0.25 0"/>
<feBlend mode="normal" in2="BackgroundImageFix" result="effect1_dropShadow_21_322"/>
<feBlend mode="normal" in="SourceGraphic" in2="effect1_dropShadow_21_322" result="shape"/>
<feColorMatrix in="SourceAlpha" type="matrix" values="0 0 0 0 0 0 0 0 0 0 0 0 0 0 0 0 0 0 127 0" result="hardAlpha"/>
<feOffset dy="6"/>
<feGaussianBlur stdDeviation="2"/>
<feComposite in2="hardAlpha" operator="arithmetic" k2="-1" k3="1"/>
<feColorMatrix type="matrix" values="0 0 0 0 1 0 0 0 0 1 0 0 0 0 1 0 0 0 0.3 0"/>
<feBlend mode="normal" in2="shape" result="effect2_innerShadow_21_322"/>
<feColorMatrix in="SourceAlpha" type="matrix" values="0 0 0 0 0 0 0 0 0 0 0 0 0 0 0 0 0 0 127 0" result="hardAlpha"/>
<feOffset dx="-4" dy="-9"/>
<feGaussianBlur stdDeviation="2"/>
<feComposite in2="hardAlpha" operator="arithmetic" k2="-1" k3="1"/>
<feColorMatrix type="matrix" values="0 0 0 0 1 0 0 0 0 1 0 0 0 0 1 0 0 0 0.1 0"/>
<feBlend mode="normal" in2="effect2_innerShadow_21_322" result="effect3_innerShadow_21_322"/>
</filter>
<filter id="filter6_dii_21_322" x="499.993" y="506.001" width="191.495" height="204.623" filterUnits="userSpaceOnUse" color-interpolation-filters="sRGB">
<feFlood flood-opacity="0" result="BackgroundImageFix"/>
<feColorMatrix in="SourceAlpha" type="matrix" values="0 0 0 0 0 0 0 0 0 0 0 0 0 0 0 0 0 0 127 0" result="hardAlpha"/>
<feOffset dy="4"/>
<feGaussianBlur stdDeviation="2"/>
<feComposite in2="hardAlpha" operator="out"/>
<feColorMatrix type="matrix" values="0 0 0 0 0 0 0 0 0 0 0 0 0 0 0 0 0 0 0.25 0"/>
<feBlend mode="normal" in2="BackgroundImageFix" result="effect1_dropShadow_21_322"/>
<feBlend mode="normal" in="SourceGraphic" in2="effect1_dropShadow_21_322" result="shape"/>
<feColorMatrix in="SourceAlpha" type="matrix" values="0 0 0 0 0 0 0 0 0 0 0 0 0 0 0 0 0 0 127 0" result="hardAlpha"/>
<feOffset dy="4"/>
<feGaussianBlur stdDeviation="2"/>
<feComposite in2="hardAlpha" operator="arithmetic" k2="-1" k3="1"/>
<feColorMatrix type="matrix" values="0 0 0 0 1 0 0 0 0 1 0 0 0 0 1 0 0 0 0.3 0"/>
<feBlend mode="normal" in2="shape" result="effect2_innerShadow_21_322"/>
<feColorMatrix in="SourceAlpha" type="matrix" values="0 0 0 0 0 0 0 0 0 0 0 0 0 0 0 0 0 0 127 0" result="hardAlpha"/>
<feOffset dx="-4" dy="-9"/>
<feGaussianBlur stdDeviation="2"/>
<feComposite in2="hardAlpha" operator="arithmetic" k2="-1" k3="1"/>
<feColorMatrix type="matrix" values="0 0 0 0 1 0 0 0 0 1 0 0 0 0 1 0 0 0 0.1 0"/>
<feBlend mode="normal" in2="effect2_innerShadow_21_322" result="effect3_innerShadow_21_322"/>
</filter>
<filter id="filter7_i_21_322" x="375.857" y="380.036" width="207.567" height="209.423" filterUnits="userSpaceOnUse" color-interpolation-filters="sRGB">
<feFlood flood-opacity="0" result="BackgroundImageFix"/>
<feBlend mode="normal" in="SourceGraphic" in2="BackgroundImageFix" result="shape"/>
<feColorMatrix in="SourceAlpha" type="matrix" values="0 0 0 0 0 0 0 0 0 0 0 0 0 0 0 0 0 0 127 0" result="hardAlpha"/>
<feOffset dy="4"/>
<feGaussianBlur stdDeviation="2"/>
<feComposite in2="hardAlpha" operator="arithmetic" k2="-1" k3="1"/>
<feColorMatrix type="matrix" values="0 0 0 0 0 0 0 0 0 0 0 0 0 0 0 0 0 0 0.35 0"/>
<feBlend mode="normal" in2="shape" result="effect1_innerShadow_21_322"/>
</filter>
<filter id="filter8_i_21_322" x="284.16" y="657.386" width="265.064" height="370.233" filterUnits="userSpaceOnUse" color-interpolation-filters="sRGB">
<feFlood flood-opacity="0" result="BackgroundImageFix"/>
<feBlend mode="normal" in="SourceGraphic" in2="BackgroundImageFix" result="shape"/>
<feColorMatrix in="SourceAlpha" type="matrix" values="0 0 0 0 0 0 0 0 0 0 0 0 0 0 0 0 0 0 127 0" result="hardAlpha"/>
<feOffset dy="4"/>
<feGaussianBlur stdDeviation="2"/>
<feComposite in2="hardAlpha" operator="arithmetic" k2="-1" k3="1"/>
<feColorMatrix type="matrix" values="0 0 0 0 0 0 0 0 0 0 0 0 0 0 0 0 0 0 0.35 0"/>
<feBlend mode="normal" in2="shape" result="effect1_innerShadow_21_322"/>
</filter>
<filter id="filter9_dii_21_322" x="756.688" y="506.427" width="339.243" height="248.655" filterUnits="userSpaceOnUse" color-interpolation-filters="sRGB">
<feFlood flood-opacity="0" result="BackgroundImageFix"/>
<feColorMatrix in="SourceAlpha" type="matrix" values="0 0 0 0 0 0 0 0 0 0 0 0 0 0 0 0 0 0 127 0" result="hardAlpha"/>
<feOffset dy="4"/>
<feGaussianBlur stdDeviation="2"/>
<feComposite in2="hardAlpha" operator="out"/>
<feColorMatrix type="matrix" values="0 0 0 0 0 0 0 0 0 0 0 0 0 0 0 0 0 0 0.25 0"/>
<feBlend mode="normal" in2="BackgroundImageFix" result="effect1_dropShadow_21_322"/>
<feBlend mode="normal" in="SourceGraphic" in2="effect1_dropShadow_21_322" result="shape"/>
<feColorMatrix in="SourceAlpha" type="matrix" values="0 0 0 0 0 0 0 0 0 0 0 0 0 0 0 0 0 0 127 0" result="hardAlpha"/>
<feOffset dy="6"/>
<feGaussianBlur stdDeviation="2"/>
<feComposite in2="hardAlpha" operator="arithmetic" k2="-1" k3="1"/>
<feColorMatrix type="matrix" values="0 0 0 0 1 0 0 0 0 1 0 0 0 0 1 0 0 0 0.3 0"/>
<feBlend mode="normal" in2="shape" result="effect2_innerShadow_21_322"/>
<feColorMatrix in="SourceAlpha" type="matrix" values="0 0 0 0 0 0 0 0 0 0 0 0 0 0 0 0 0 0 127 0" result="hardAlpha"/>
<feOffset dx="-4" dy="-9"/>
<feGaussianBlur stdDeviation="2"/>
<feComposite in2="hardAlpha" operator="arithmetic" k2="-1" k3="1"/>
<feColorMatrix type="matrix" values="0 0 0 0 1 0 0 0 0 1 0 0 0 0 1 0 0 0 0.1 0"/>
<feBlend mode="normal" in2="effect2_innerShadow_21_322" result="effect3_innerShadow_21_322"/>
</filter>
<filter id="filter10_i_21_322" x="912.513" y="443.277" width="196.925" height="151.842" filterUnits="userSpaceOnUse" color-interpolation-filters="sRGB">
<feFlood flood-opacity="0" result="BackgroundImageFix"/>
<feBlend mode="normal" in="SourceGraphic" in2="BackgroundImageFix" result="shape"/>
<feColorMatrix in="SourceAlpha" type="matrix" values="0 0 0 0 0 0 0 0 0 0 0 0 0 0 0 0 0 0 127 0" result="hardAlpha"/>
<feOffset dy="4"/>
<feGaussianBlur stdDeviation="2"/>
<feComposite in2="hardAlpha" operator="arithmetic" k2="-1" k3="1"/>
<feColorMatrix type="matrix" values="0 0 0 0 0 0 0 0 0 0 0 0 0 0 0 0 0 0 0.35 0"/>
<feBlend mode="normal" in2="shape" result="effect1_innerShadow_21_322"/>
</filter>
<filter id="filter11_f_21_322" x="0" y="0" width="1208" height="1208" filterUnits="userSpaceOnUse" color-interpolation-filters="sRGB">
<feFlood flood-opacity="0" result="BackgroundImageFix"/>
<feBlend mode="normal" in="SourceGraphic" in2="BackgroundImageFix" result="shape"/>
<feGaussianBlur stdDeviation="2" result="effect1_foregroundBlur_21_322"/>
</filter>
<linearGradient id="paint0_linear_21_322" x1="654.5" y1="526.506" x2="634.839" y2="289.644" gradientUnits="userSpaceOnUse">
<stop stop-color="white"/>
<stop offset="1" stop-color="white" stop-opacity="0"/>
</linearGradient>
<linearGradient id="paint1_linear_21_322" x1="286.564" y1="678.173" x2="106.811" y2="626.681" gradientUnits="userSpaceOnUse">
<stop stop-color="white"/>
<stop offset="1" stop-color="white" stop-opacity="0"/>
</linearGradient>
<linearGradient id="paint2_linear_21_322" x1="801.484" y1="650.086" x2="630.156" y2="809.243" gradientUnits="userSpaceOnUse">
<stop stop-color="white"/>
<stop offset="1" stop-color="white" stop-opacity="0"/>
</linearGradient>
<linearGradient id="paint3_linear_21_322" x1="502.829" y1="783.03" x2="856.718" y2="853.246" gradientUnits="userSpaceOnUse">
<stop stop-color="#2B2C2B"/>
<stop offset="1" stop-color="#2B2C2B" stop-opacity="0"/>
</linearGradient>
<linearGradient id="paint4_linear_21_322" x1="438.231" y1="682.854" x2="107.747" y2="548.039" gradientUnits="userSpaceOnUse">
<stop stop-color="#2B2C2B"/>
<stop offset="1" stop-color="#2B2C2B" stop-opacity="0"/>
</linearGradient>
<linearGradient id="paint5_linear_21_322" x1="233.2" y1="387.01" x2="368.015" y2="706.259" gradientUnits="userSpaceOnUse">
<stop stop-color="white"/>
<stop offset="1" stop-color="white" stop-opacity="0"/>
</linearGradient>
<linearGradient id="paint6_linear_21_322" x1="398.91" y1="416.033" x2="660.113" y2="408.543" gradientUnits="userSpaceOnUse">
<stop stop-color="#2B2C2B"/>
<stop offset="1" stop-color="#2B2C2B" stop-opacity="0"/>
</linearGradient>
<linearGradient id="paint7_linear_21_322" x1="515.934" y1="513.399" x2="681.644" y2="693.152" gradientUnits="userSpaceOnUse">
<stop stop-color="#2B2C2B"/>
<stop offset="1" stop-color="#2B2C2B" stop-opacity="0"/>
</linearGradient>
<linearGradient id="paint8_linear_21_322" x1="393.293" y1="565.827" x2="563.684" y2="396.372" gradientUnits="userSpaceOnUse">
<stop stop-color="white"/>
<stop offset="1" stop-color="white" stop-opacity="0"/>
</linearGradient>
<linearGradient id="paint9_linear_21_322" x1="490.658" y1="687.535" x2="515.935" y2="913.163" gradientUnits="userSpaceOnUse">
<stop stop-color="white"/>
<stop offset="1" stop-color="white" stop-opacity="0"/>
</linearGradient>
<linearGradient id="paint10_linear_21_322" x1="1075.38" y1="613.244" x2="770.177" y2="536.475" gradientUnits="userSpaceOnUse">
<stop stop-color="#2B2C2B"/>
<stop offset="1" stop-opacity="0"/>
<stop offset="1" stop-color="#2B2C2B" stop-opacity="0"/>
</linearGradient>
<linearGradient id="paint11_linear_21_322" x1="1079.66" y1="562.659" x2="938.289" y2="525.21" gradientUnits="userSpaceOnUse">
<stop stop-color="white"/>
<stop offset="1" stop-color="white" stop-opacity="0"/>
</linearGradient>
</defs>
</svg>
