<svg width="224" height="220" viewBox="0 0 224 220" fill="none" xmlns="http://www.w3.org/2000/svg">
<circle cx="112" cy="110" r="110" fill="white"/>
<path d="M101.28 116.065L51.64 164.353L85.8279 197.576L108.427 175.749L98.9622 166.478L85.8279 178.453L71.7278 164.353L109.972 124.95L101.28 116.065Z" fill="#999999" stroke="#999999"/>
<path d="M176.609 109.691L167.724 100.806L191.482 78.9795L222 113.361H207.32L191.482 95.5906L176.609 109.691Z" fill="#999999" stroke="#999999"/>
<path d="M125.231 110.271L115.96 101L158.839 59.8582L143.967 43.8266L129.287 57.5404L119.243 47.4965L141.842 26.0566L175.257 61.2103L125.231 110.271Z" fill="#999999" stroke="#999999"/>
<path d="M35.2221 146.39L2 112.009L19.1905 113.554L35.8016 130.165L50.4811 116.451L58.4004 124.757L35.2221 146.39Z" fill="#999999" stroke="#999999"/>
<path d="M152.272 115.1L113.255 152.571L122.334 161.649L161.737 124.564L152.272 115.1Z" fill="#999999" stroke="#999999"/>
<path d="M97.8033 141.947L88.9183 150.832L134.888 197.382L169.27 164.739L148.602 141.947L139.138 150.832L151.886 164.739L136.627 180.578L97.8033 141.947Z" fill="#1569EF" stroke="#1569EF"/>
<path d="M151.693 89.0234L142.228 98.681L187.619 147.355L221.614 113.747H207.127L190.323 130.551L151.693 89.0234Z" fill="#1569EF" stroke="#1569EF"/>
<path d="M35.4153 78.207L2.19318 111.815L18.8042 113.747L35.4153 95.977L72.1142 133.448L80.6129 124.177L35.4153 78.207Z" fill="#1569EF"/>
<path d="M85.6348 74.7305L76.7498 83.8086L52.799 57.3468L88.9183 22L134.309 70.4811L124.845 79.7524L88.9183 42.4741L72.6936 60.2441L85.6348 74.7305Z" fill="#1569EF"/>
<path d="M100.314 90.1826L91.2362 98.6813L125.231 135.187L134.116 126.495L100.314 90.1826Z" fill="#1569EF" stroke="#1569EF"/>
<path d="M73.8525 110.85L64.5812 101.965L103.598 62.9482L112.869 72.9921L73.8525 110.85Z" fill="#999999" stroke="#999999"/>
</svg>
