<svg width="224" height="220" viewBox="0 0 224 220" fill="none" xmlns="http://www.w3.org/2000/svg">
<circle cx="112" cy="110" r="110" fill="white"/>
<path d="M101.28 116.065L51.6401 164.353L85.828 197.575L108.427 175.749L98.9624 166.478L85.828 178.453L71.7279 164.353L109.972 124.95L101.28 116.065Z" fill="#999999" stroke="#999999"/>
<path d="M176.609 109.691L167.724 100.806L191.482 78.9797L222 113.361H207.32L191.482 95.5908L176.609 109.691Z" fill="#999999" stroke="#999999"/>
<path d="M125.231 110.27L115.96 100.999L158.839 59.8577L143.967 43.8261L129.287 57.5399L119.243 47.496L141.842 26.0562L175.257 61.2098L125.231 110.27Z" fill="#999999" stroke="#999999"/>
<path d="M35.2221 146.39L2 112.009L19.1905 113.554L35.8016 130.165L50.4811 116.451L58.4004 124.757L35.2221 146.39Z" fill="#999999" stroke="#999999"/>
<path d="M152.272 115.099L113.255 152.571L122.334 161.649L161.736 124.564L152.272 115.099Z" fill="#999999" stroke="#999999"/>
<path d="M97.8034 141.947L88.9185 150.832L134.889 197.382L169.27 164.739L148.602 141.947L139.138 150.832L151.886 164.739L136.627 180.578L97.8034 141.947Z" fill="#1569EF" stroke="#1569EF"/>
<path d="M151.693 89.0237L142.228 98.6813L187.619 147.356L221.614 113.747H207.127L190.323 130.551L151.693 89.0237Z" fill="#1569EF" stroke="#1569EF"/>
<path d="M35.4152 78.2073L2.19312 111.816L18.8042 113.747L35.4152 95.9773L72.1141 133.449L80.6128 124.177L35.4152 78.2073Z" fill="#1569EF"/>
<path d="M85.6346 74.7305L76.7497 83.8086L52.7988 57.3468L88.9182 22L134.309 70.4811L124.844 79.7524L88.9182 42.4741L72.6935 60.2441L85.6346 74.7305Z" fill="#1569EF"/>
<path d="M100.314 90.1826L91.2361 98.6813L125.231 135.187L134.116 126.495L100.314 90.1826Z" fill="#1569EF" stroke="#1569EF"/>
<path d="M73.8526 110.85L64.5813 101.965L103.598 62.9482L112.869 72.9921L73.8526 110.85Z" fill="#999999" stroke="#999999"/>
</svg>
