<svg width="265" height="36" viewBox="0 0 265 36" fill="none" xmlns="http://www.w3.org/2000/svg">
<g filter="url(#filter0_d_513_502)">
<rect x="4" y="2" width="257" height="26" rx="10" fill="white"/>
</g>
<path d="M16.2109 15.7109L14.8203 17.1562V21H13.3203V9.625H14.8203V15.25L19.875 9.625H21.6875L17.2109 14.6484L22.0391 21H20.2422L16.2109 15.7109ZM22.5234 16.6953C22.5234 15.8672 22.6849 15.1224 23.0078 14.4609C23.3359 13.7995 23.7891 13.2891 24.3672 12.9297C24.9505 12.5703 25.6146 12.3906 26.3594 12.3906C27.5104 12.3906 28.4401 12.7891 29.1484 13.5859C29.862 14.3828 30.2188 15.4427 30.2188 16.7656V16.8672C30.2188 17.6901 30.0599 18.4297 29.7422 19.0859C29.4297 19.737 28.9792 20.2448 28.3906 20.6094C27.8073 20.974 27.1354 21.1562 26.375 21.1562C25.2292 21.1562 24.2995 20.7578 23.5859 19.9609C22.8776 19.1641 22.5234 18.1094 22.5234 16.7969V16.6953ZM23.9766 16.8672C23.9766 17.8047 24.1927 18.5573 24.625 19.125C25.0625 19.6927 25.6458 19.9766 26.375 19.9766C27.1094 19.9766 27.6927 19.6901 28.125 19.1172C28.5573 18.5391 28.7734 17.7318 28.7734 16.6953C28.7734 15.7682 28.5521 15.0182 28.1094 14.4453C27.6719 13.8672 27.0885 13.5781 26.3594 13.5781C25.6458 13.5781 25.0703 13.862 24.6328 14.4297C24.1953 14.9974 23.9766 15.8099 23.9766 16.8672ZM33.9922 10.5V12.5469H35.5703V13.6641H33.9922V18.9062C33.9922 19.2448 34.0625 19.5 34.2031 19.6719C34.3438 19.8385 34.5833 19.9219 34.9219 19.9219C35.0885 19.9219 35.3177 19.8906 35.6094 19.8281V21C35.2292 21.1042 34.8594 21.1562 34.5 21.1562C33.8542 21.1562 33.3672 20.9609 33.0391 20.5703C32.7109 20.1797 32.5469 19.625 32.5469 18.9062V13.6641H31.0078V12.5469H32.5469V10.5H33.9922ZM38.8359 21H37.3906V9H38.8359V21ZM42.7266 21H41.2812V12.5469H42.7266V21ZM41.1641 10.3047C41.1641 10.0703 41.2344 9.8724 41.375 9.71094C41.5208 9.54948 41.7344 9.46875 42.0156 9.46875C42.2969 9.46875 42.5104 9.54948 42.6562 9.71094C42.8021 9.8724 42.875 10.0703 42.875 10.3047C42.875 10.5391 42.8021 10.7344 42.6562 10.8906C42.5104 11.0469 42.2969 11.125 42.0156 11.125C41.7344 11.125 41.5208 11.0469 41.375 10.8906C41.2344 10.7344 41.1641 10.5391 41.1641 10.3047ZM46.4141 12.5469L46.4609 13.6094C47.1068 12.7969 47.9505 12.3906 48.9922 12.3906C50.7786 12.3906 51.6797 13.3984 51.6953 15.4141V21H50.25V15.4062C50.2448 14.7969 50.1042 14.3464 49.8281 14.0547C49.5573 13.763 49.1328 13.6172 48.5547 13.6172C48.0859 13.6172 47.6745 13.7422 47.3203 13.9922C46.9661 14.2422 46.6901 14.5703 46.4922 14.9766V21H45.0469V12.5469H46.4141Z" fill="#262424"/>
<g filter="url(#filter1_d_513_502)">
<circle cx="105" cy="15" r="6" fill="white"/>
</g>
<g filter="url(#filter2_d_513_502)">
<circle cx="127.4" cy="15" r="6" fill="#1569EF" fill-opacity="0.4" shape-rendering="crispEdges"/>
</g>
<g filter="url(#filter3_d_513_502)">
<circle cx="149.8" cy="15" r="6" fill="#1569EF" fill-opacity="0.8" shape-rendering="crispEdges"/>
</g>
<g filter="url(#filter4_d_513_502)">
<circle cx="169" cy="15" r="5.75" stroke="#1569EF" stroke-width="0.5" shape-rendering="crispEdges"/>
</g>
<path d="M234.889 22.2222H217.111L226.03 13.3037L234.889 22.2222Z" fill="url(#paint0_linear_513_502)"/>
<path d="M217.111 14.074V4.44434H226.03L217.111 14.074Z" fill="url(#paint1_linear_513_502)"/>
<path d="M217.111 22.2221L226.03 13.3036L234.889 4.44434H226.03L217.111 13.8369V22.2221Z" fill="url(#paint2_linear_513_502)"/>
<defs>
<filter id="filter0_d_513_502" x="0" y="2" width="265" height="34" filterUnits="userSpaceOnUse" color-interpolation-filters="sRGB">
<feFlood flood-opacity="0" result="BackgroundImageFix"/>
<feColorMatrix in="SourceAlpha" type="matrix" values="0 0 0 0 0 0 0 0 0 0 0 0 0 0 0 0 0 0 127 0" result="hardAlpha"/>
<feOffset dy="4"/>
<feGaussianBlur stdDeviation="2"/>
<feComposite in2="hardAlpha" operator="out"/>
<feColorMatrix type="matrix" values="0 0 0 0 0 0 0 0 0 0 0 0 0 0 0 0 0 0 0.25 0"/>
<feBlend mode="normal" in2="BackgroundImageFix" result="effect1_dropShadow_513_502"/>
<feBlend mode="normal" in="SourceGraphic" in2="effect1_dropShadow_513_502" result="shape"/>
</filter>
<filter id="filter1_d_513_502" x="95" y="9" width="20" height="20" filterUnits="userSpaceOnUse" color-interpolation-filters="sRGB">
<feFlood flood-opacity="0" result="BackgroundImageFix"/>
<feColorMatrix in="SourceAlpha" type="matrix" values="0 0 0 0 0 0 0 0 0 0 0 0 0 0 0 0 0 0 127 0" result="hardAlpha"/>
<feOffset dy="4"/>
<feGaussianBlur stdDeviation="2"/>
<feComposite in2="hardAlpha" operator="out"/>
<feColorMatrix type="matrix" values="0 0 0 0 0 0 0 0 0 0 0 0 0 0 0 0 0 0 0.25 0"/>
<feBlend mode="normal" in2="BackgroundImageFix" result="effect1_dropShadow_513_502"/>
<feBlend mode="normal" in="SourceGraphic" in2="effect1_dropShadow_513_502" result="shape"/>
</filter>
<filter id="filter2_d_513_502" x="117.4" y="9" width="20" height="20" filterUnits="userSpaceOnUse" color-interpolation-filters="sRGB">
<feFlood flood-opacity="0" result="BackgroundImageFix"/>
<feColorMatrix in="SourceAlpha" type="matrix" values="0 0 0 0 0 0 0 0 0 0 0 0 0 0 0 0 0 0 127 0" result="hardAlpha"/>
<feOffset dy="4"/>
<feGaussianBlur stdDeviation="2"/>
<feComposite in2="hardAlpha" operator="out"/>
<feColorMatrix type="matrix" values="0 0 0 0 0 0 0 0 0 0 0 0 0 0 0 0 0 0 0.25 0"/>
<feBlend mode="normal" in2="BackgroundImageFix" result="effect1_dropShadow_513_502"/>
<feBlend mode="normal" in="SourceGraphic" in2="effect1_dropShadow_513_502" result="shape"/>
</filter>
<filter id="filter3_d_513_502" x="139.8" y="9" width="20" height="20" filterUnits="userSpaceOnUse" color-interpolation-filters="sRGB">
<feFlood flood-opacity="0" result="BackgroundImageFix"/>
<feColorMatrix in="SourceAlpha" type="matrix" values="0 0 0 0 0 0 0 0 0 0 0 0 0 0 0 0 0 0 127 0" result="hardAlpha"/>
<feOffset dy="4"/>
<feGaussianBlur stdDeviation="2"/>
<feComposite in2="hardAlpha" operator="out"/>
<feColorMatrix type="matrix" values="0 0 0 0 0 0 0 0 0 0 0 0 0 0 0 0 0 0 0.25 0"/>
<feBlend mode="normal" in2="BackgroundImageFix" result="effect1_dropShadow_513_502"/>
<feBlend mode="normal" in="SourceGraphic" in2="effect1_dropShadow_513_502" result="shape"/>
</filter>
<filter id="filter4_d_513_502" x="159" y="9" width="20" height="20" filterUnits="userSpaceOnUse" color-interpolation-filters="sRGB">
<feFlood flood-opacity="0" result="BackgroundImageFix"/>
<feColorMatrix in="SourceAlpha" type="matrix" values="0 0 0 0 0 0 0 0 0 0 0 0 0 0 0 0 0 0 127 0" result="hardAlpha"/>
<feOffset dy="4"/>
<feGaussianBlur stdDeviation="2"/>
<feComposite in2="hardAlpha" operator="out"/>
<feColorMatrix type="matrix" values="0 0 0 0 0 0 0 0 0 0 0 0 0 0 0 0 0 0 0.25 0"/>
<feBlend mode="normal" in2="BackgroundImageFix" result="effect1_dropShadow_513_502"/>
<feBlend mode="normal" in="SourceGraphic" in2="effect1_dropShadow_513_502" result="shape"/>
</filter>
<linearGradient id="paint0_linear_513_502" x1="221.84" y1="26.3746" x2="230.239" y2="17.9754" gradientUnits="userSpaceOnUse">
<stop offset="0.0968" stop-color="#0095D5"/>
<stop offset="0.3007" stop-color="#238AD9"/>
<stop offset="0.6211" stop-color="#557BDE"/>
<stop offset="0.8643" stop-color="#7472E2"/>
<stop offset="1" stop-color="#806EE3"/>
</linearGradient>
<linearGradient id="paint1_linear_513_502" x1="218.358" y1="8.0174" x2="223.237" y2="3.13916" gradientUnits="userSpaceOnUse">
<stop offset="0.1183" stop-color="#0095D5"/>
<stop offset="0.4178" stop-color="#3C83DC"/>
<stop offset="0.6962" stop-color="#6D74E1"/>
<stop offset="0.8333" stop-color="#806EE3"/>
</linearGradient>
<linearGradient id="paint2_linear_513_502" x1="214.118" y1="20.7892" x2="230.661" y2="4.24603" gradientUnits="userSpaceOnUse">
<stop offset="0.1075" stop-color="#C757BC"/>
<stop offset="0.2138" stop-color="#D0609A"/>
<stop offset="0.4254" stop-color="#E1725C"/>
<stop offset="0.6048" stop-color="#EE7E2F"/>
<stop offset="0.743" stop-color="#F58613"/>
<stop offset="0.8232" stop-color="#F88909"/>
</linearGradient>
</defs>
</svg>
