<svg width="265" height="34" viewBox="0 0 265 34" fill="none" xmlns="http://www.w3.org/2000/svg">
<g filter="url(#filter0_d_513_461)">
<rect x="4" width="257" height="26" rx="10" fill="white"/>
</g>
<path d="M19.6016 15.0312H14.8359L13.7656 18H12.2188L16.5625 6.625H17.875L22.2266 18H20.6875L19.6016 15.0312ZM15.2891 13.7969H19.1562L17.2188 8.47656L15.2891 13.7969ZM28.6562 17.1641C28.0938 17.8255 27.2682 18.1562 26.1797 18.1562C25.2786 18.1562 24.5911 17.8958 24.1172 17.375C23.6484 16.849 23.4115 16.0729 23.4062 15.0469V9.54688H24.8516V15.0078C24.8516 16.2891 25.3724 16.9297 26.4141 16.9297C27.5182 16.9297 28.2526 16.5182 28.6172 15.6953V9.54688H30.0625V18H28.6875L28.6562 17.1641ZM34.2266 7.5V9.54688H35.8047V10.6641H34.2266V15.9062C34.2266 16.2448 34.2969 16.5 34.4375 16.6719C34.5781 16.8385 34.8177 16.9219 35.1562 16.9219C35.3229 16.9219 35.5521 16.8906 35.8438 16.8281V18C35.4635 18.1042 35.0938 18.1562 34.7344 18.1562C34.0885 18.1562 33.6016 17.9609 33.2734 17.5703C32.9453 17.1797 32.7812 16.625 32.7812 15.9062V10.6641H31.2422V9.54688H32.7812V7.5H34.2266ZM36.9609 13.6953C36.9609 12.8672 37.1224 12.1224 37.4453 11.4609C37.7734 10.7995 38.2266 10.2891 38.8047 9.92969C39.388 9.57031 40.0521 9.39062 40.7969 9.39062C41.9479 9.39062 42.8776 9.78906 43.5859 10.5859C44.2995 11.3828 44.6562 12.4427 44.6562 13.7656V13.8672C44.6562 14.6901 44.4974 15.4297 44.1797 16.0859C43.8672 16.737 43.4167 17.2448 42.8281 17.6094C42.2448 17.974 41.5729 18.1562 40.8125 18.1562C39.6667 18.1562 38.737 17.7578 38.0234 16.9609C37.3151 16.1641 36.9609 15.1094 36.9609 13.7969V13.6953ZM38.4141 13.8672C38.4141 14.8047 38.6302 15.5573 39.0625 16.125C39.5 16.6927 40.0833 16.9766 40.8125 16.9766C41.5469 16.9766 42.1302 16.6901 42.5625 16.1172C42.9948 15.5391 43.2109 14.7318 43.2109 13.6953C43.2109 12.7682 42.9896 12.0182 42.5469 11.4453C42.1094 10.8672 41.526 10.5781 40.7969 10.5781C40.0833 10.5781 39.5078 10.862 39.0703 11.4297C38.6328 11.9974 38.4141 12.8099 38.4141 13.8672ZM46.6953 18V6.625H49.9062C50.8958 6.625 51.7708 6.84375 52.5312 7.28125C53.2917 7.71875 53.8776 8.34115 54.2891 9.14844C54.7057 9.95573 54.9167 10.8828 54.9219 11.9297V12.6562C54.9219 13.7292 54.7135 14.6693 54.2969 15.4766C53.8854 16.2839 53.2943 16.9036 52.5234 17.3359C51.7578 17.7682 50.8646 17.9896 49.8438 18H46.6953ZM48.1953 7.85938V16.7734H49.7734C50.9297 16.7734 51.8281 16.4141 52.4688 15.6953C53.1146 14.9766 53.4375 13.9531 53.4375 12.625V11.9609C53.4375 10.6693 53.1328 9.66667 52.5234 8.95312C51.9193 8.23438 51.0599 7.86979 49.9453 7.85938H48.1953ZM60.4766 18.1562C59.3307 18.1562 58.3984 17.7812 57.6797 17.0312C56.9609 16.276 56.6016 15.2682 56.6016 14.0078V13.7422C56.6016 12.9036 56.7604 12.1562 57.0781 11.5C57.401 10.8385 57.849 10.3229 58.4219 9.95312C59 9.57812 59.625 9.39062 60.2969 9.39062C61.3958 9.39062 62.25 9.7526 62.8594 10.4766C63.4688 11.2005 63.7734 12.237 63.7734 13.5859V14.1875H58.0469C58.0677 15.0208 58.3099 15.6953 58.7734 16.2109C59.2422 16.7214 59.8359 16.9766 60.5547 16.9766C61.0651 16.9766 61.4974 16.8724 61.8516 16.6641C62.2057 16.4557 62.5156 16.1797 62.7812 15.8359L63.6641 16.5234C62.9557 17.612 61.8932 18.1562 60.4766 18.1562ZM60.2969 10.5781C59.7135 10.5781 59.224 10.7917 58.8281 11.2188C58.4323 11.6406 58.1875 12.2344 58.0938 13H62.3281V12.8906C62.2865 12.1562 62.0885 11.5885 61.7344 11.1875C61.3802 10.7812 60.901 10.5781 60.2969 10.5781ZM70.375 15.7578C70.375 15.3672 70.2266 15.0651 69.9297 14.8516C69.638 14.6328 69.125 14.4453 68.3906 14.2891C67.6615 14.1328 67.0807 13.9453 66.6484 13.7266C66.2214 13.5078 65.9036 13.2474 65.6953 12.9453C65.4922 12.6432 65.3906 12.2839 65.3906 11.8672C65.3906 11.1745 65.6823 10.5885 66.2656 10.1094C66.8542 9.63021 67.6042 9.39062 68.5156 9.39062C69.474 9.39062 70.25 9.63802 70.8438 10.1328C71.4427 10.6276 71.7422 11.2604 71.7422 12.0312H70.2891C70.2891 11.6354 70.1198 11.2943 69.7812 11.0078C69.4479 10.7214 69.026 10.5781 68.5156 10.5781C67.9896 10.5781 67.5781 10.6927 67.2812 10.9219C66.9844 11.151 66.8359 11.4505 66.8359 11.8203C66.8359 12.1693 66.974 12.4323 67.25 12.6094C67.526 12.7865 68.0234 12.9557 68.7422 13.1172C69.4661 13.2786 70.0521 13.4714 70.5 13.6953C70.9479 13.9193 71.2786 14.1901 71.4922 14.5078C71.7109 14.8203 71.8203 15.2031 71.8203 15.6562C71.8203 16.4115 71.5182 17.0182 70.9141 17.4766C70.3099 17.9297 69.526 18.1562 68.5625 18.1562C67.8854 18.1562 67.2865 18.0365 66.7656 17.7969C66.2448 17.5573 65.8359 17.224 65.5391 16.7969C65.2474 16.3646 65.1016 15.8984 65.1016 15.3984H66.5469C66.5729 15.8828 66.7656 16.2682 67.125 16.5547C67.4896 16.8359 67.9688 16.9766 68.5625 16.9766C69.1094 16.9766 69.5469 16.8672 69.875 16.6484C70.2083 16.4245 70.375 16.1276 70.375 15.7578ZM76.0625 14.0859L75.1562 15.0312V18H73.7109V6H75.1562V13.2578L75.9297 12.3281L78.5625 9.54688H80.3203L77.0312 13.0781L80.7031 18H79.0078L76.0625 14.0859ZM83.7734 7.5V9.54688H85.3516V10.6641H83.7734V15.9062C83.7734 16.2448 83.8438 16.5 83.9844 16.6719C84.125 16.8385 84.3646 16.9219 84.7031 16.9219C84.8698 16.9219 85.099 16.8906 85.3906 16.8281V18C85.0104 18.1042 84.6406 18.1562 84.2812 18.1562C83.6354 18.1562 83.1484 17.9609 82.8203 17.5703C82.4922 17.1797 82.3281 16.625 82.3281 15.9062V10.6641H80.7891V9.54688H82.3281V7.5H83.7734Z" fill="#262424"/>
<g filter="url(#filter1_d_513_461)">
<circle cx="105" cy="12" r="6" fill="white"/>
</g>
<g filter="url(#filter2_d_513_461)">
<circle cx="127.4" cy="12" r="6" fill="#1569EF" fill-opacity="0.4" shape-rendering="crispEdges"/>
</g>
<g filter="url(#filter3_d_513_461)">
<circle cx="149.8" cy="12" r="6" fill="#1569EF" fill-opacity="0.8" shape-rendering="crispEdges"/>
</g>
<g filter="url(#filter4_d_513_461)">
<circle cx="169" cy="12" r="5.75" stroke="#1569EF" stroke-width="0.5" shape-rendering="crispEdges"/>
</g>
<path d="M211.785 10.8912L210.772 13.2575H212.808L211.785 10.8912ZM214.886 15.6055H213.788L213.188 14.1783H210.391L209.783 15.6055H208.719L211.321 9.64941H212.283L214.886 15.6055ZM224.474 15.6056H223.426V10.6547H221.55V9.69144H226.434L226.031 10.6547H224.474V15.6056ZM244.369 10.6546H241.202V12.1586H243.231V13.089H241.202V14.6605H244.371V15.6055H240.156V9.69132H244.369V10.6546ZM251.795 15.6059H250.804V9.69175H251.795V15.6059Z" fill="#0E0D0F"/>
<path d="M247.581 10.5441C246.977 10.5441 246.464 10.7268 246.461 11.1279C246.458 11.5975 246.753 11.7603 247.865 12.122C249.094 12.5262 249.747 12.9371 249.74 13.9371C249.734 15.0642 248.863 15.7065 247.591 15.7065C246.69 15.7065 245.883 15.4149 245.267 14.8736L245.651 13.946C246.209 14.414 246.886 14.7459 247.617 14.749C248.258 14.7522 248.713 14.4402 248.713 13.9795C248.713 13.5936 248.49 13.3371 247.411 12.9952C246.174 12.5895 245.426 12.1665 245.432 11.1587C245.44 10.1562 246.38 9.5861 247.562 9.59185C248.745 9.59709 249.41 10.03 249.511 10.0887L249.14 10.9315C248.899 10.8017 248.369 10.5441 247.581 10.5441ZM253.072 12.5534L255.72 9.69028H254.451L251.795 12.5539L254.714 15.606H256L253.072 12.5534ZM229.637 14.7522C228.474 14.7522 227.626 13.8104 227.626 12.6482C227.626 11.4859 228.474 10.5436 229.637 10.5436C230.799 10.5436 231.648 11.4859 231.648 12.6482C231.648 13.8104 230.799 14.7527 229.637 14.7527V14.7522ZM229.637 9.58871C229.235 9.58878 228.837 9.66797 228.466 9.82176C228.095 9.97555 227.758 10.2009 227.474 10.485C227.19 10.7691 226.965 11.1064 226.811 11.4775C226.657 11.8487 226.578 12.2464 226.578 12.6482C226.578 13.0499 226.658 13.4476 226.811 13.8187C226.965 14.1898 227.19 14.527 227.475 14.811C227.759 15.095 228.096 15.3202 228.467 15.4739C228.838 15.6276 229.236 15.7066 229.638 15.7065C230.449 15.7064 231.227 15.384 231.801 14.8102C232.374 14.2365 232.696 13.4584 232.696 12.6471C232.696 11.8358 232.374 11.0578 231.8 10.4843C231.226 9.91072 230.448 9.58857 229.637 9.58871ZM236.034 14.6585L234.839 14.6595V10.6546H236.038C237.2 10.6546 238.045 11.4781 238.045 12.6398C238.045 13.802 237.195 14.6585 236.034 14.6585ZM236.034 9.6908H233.79V15.605H236.034C237.722 15.605 239.091 14.3286 239.091 12.6398C239.091 10.9504 237.722 9.6908 236.034 9.6908ZM220.408 12.9842C220.408 14.7475 219.373 15.6982 217.873 15.6982C216.373 15.6982 215.339 14.7475 215.339 12.9842V9.69132H216.386V13.1088C216.386 14.1433 216.993 14.7506 217.873 14.7506C218.753 14.7506 219.361 14.1433 219.361 13.1088V9.6908H220.408V12.9842Z" fill="#0E0D0F"/>
<path d="M198.008 18.2347C197.717 18.2347 197.565 18.1249 197.42 17.8696L196.093 15.4094C196.001 15.2331 196 15.1744 196 15.0474L198.086 15.1393L198.563 15.6167H202.747L199.273 17.7687C199.104 17.8689 198.46 18.2347 198.008 18.2347V18.2347Z" fill="url(#paint0_linear_513_461)"/>
<path d="M198.565 15.6175H196.761C196.216 15.6175 196 15.3325 196 15.0482C196 14.8682 196.058 14.7701 196.138 14.5702L198.767 8.29336L198.796 8.23828L198.832 8.18176L198.908 8.10801L199.019 8.04862L199.18 8.01318L199.456 8.02037L201.284 8.69948L200.666 10.6478L198.565 15.6175Z" fill="url(#paint1_linear_513_461)"/>
<path fill-rule="evenodd" clip-rule="evenodd" d="M203.863 18.2345L199.712 8.40958C199.641 8.24229 199.526 8.02643 199.23 8.02643C198.965 8.02643 198.838 8.15478 198.767 8.29272C198.804 8.19325 198.916 8 199.239 8H202.103C202.367 8 202.494 8.15543 202.552 8.29773L206.749 18.2345H203.863Z" fill="url(#paint2_linear_513_461)"/>
<defs>
<filter id="filter0_d_513_461" x="0" y="0" width="265" height="34" filterUnits="userSpaceOnUse" color-interpolation-filters="sRGB">
<feFlood flood-opacity="0" result="BackgroundImageFix"/>
<feColorMatrix in="SourceAlpha" type="matrix" values="0 0 0 0 0 0 0 0 0 0 0 0 0 0 0 0 0 0 127 0" result="hardAlpha"/>
<feOffset dy="4"/>
<feGaussianBlur stdDeviation="2"/>
<feComposite in2="hardAlpha" operator="out"/>
<feColorMatrix type="matrix" values="0 0 0 0 0 0 0 0 0 0 0 0 0 0 0 0 0 0 0.25 0"/>
<feBlend mode="normal" in2="BackgroundImageFix" result="effect1_dropShadow_513_461"/>
<feBlend mode="normal" in="SourceGraphic" in2="effect1_dropShadow_513_461" result="shape"/>
</filter>
<filter id="filter1_d_513_461" x="95" y="6" width="20" height="20" filterUnits="userSpaceOnUse" color-interpolation-filters="sRGB">
<feFlood flood-opacity="0" result="BackgroundImageFix"/>
<feColorMatrix in="SourceAlpha" type="matrix" values="0 0 0 0 0 0 0 0 0 0 0 0 0 0 0 0 0 0 127 0" result="hardAlpha"/>
<feOffset dy="4"/>
<feGaussianBlur stdDeviation="2"/>
<feComposite in2="hardAlpha" operator="out"/>
<feColorMatrix type="matrix" values="0 0 0 0 0 0 0 0 0 0 0 0 0 0 0 0 0 0 0.25 0"/>
<feBlend mode="normal" in2="BackgroundImageFix" result="effect1_dropShadow_513_461"/>
<feBlend mode="normal" in="SourceGraphic" in2="effect1_dropShadow_513_461" result="shape"/>
</filter>
<filter id="filter2_d_513_461" x="117.4" y="6" width="20" height="20" filterUnits="userSpaceOnUse" color-interpolation-filters="sRGB">
<feFlood flood-opacity="0" result="BackgroundImageFix"/>
<feColorMatrix in="SourceAlpha" type="matrix" values="0 0 0 0 0 0 0 0 0 0 0 0 0 0 0 0 0 0 127 0" result="hardAlpha"/>
<feOffset dy="4"/>
<feGaussianBlur stdDeviation="2"/>
<feComposite in2="hardAlpha" operator="out"/>
<feColorMatrix type="matrix" values="0 0 0 0 0 0 0 0 0 0 0 0 0 0 0 0 0 0 0.25 0"/>
<feBlend mode="normal" in2="BackgroundImageFix" result="effect1_dropShadow_513_461"/>
<feBlend mode="normal" in="SourceGraphic" in2="effect1_dropShadow_513_461" result="shape"/>
</filter>
<filter id="filter3_d_513_461" x="139.8" y="6" width="20" height="20" filterUnits="userSpaceOnUse" color-interpolation-filters="sRGB">
<feFlood flood-opacity="0" result="BackgroundImageFix"/>
<feColorMatrix in="SourceAlpha" type="matrix" values="0 0 0 0 0 0 0 0 0 0 0 0 0 0 0 0 0 0 127 0" result="hardAlpha"/>
<feOffset dy="4"/>
<feGaussianBlur stdDeviation="2"/>
<feComposite in2="hardAlpha" operator="out"/>
<feColorMatrix type="matrix" values="0 0 0 0 0 0 0 0 0 0 0 0 0 0 0 0 0 0 0.25 0"/>
<feBlend mode="normal" in2="BackgroundImageFix" result="effect1_dropShadow_513_461"/>
<feBlend mode="normal" in="SourceGraphic" in2="effect1_dropShadow_513_461" result="shape"/>
</filter>
<filter id="filter4_d_513_461" x="159" y="6" width="20" height="20" filterUnits="userSpaceOnUse" color-interpolation-filters="sRGB">
<feFlood flood-opacity="0" result="BackgroundImageFix"/>
<feColorMatrix in="SourceAlpha" type="matrix" values="0 0 0 0 0 0 0 0 0 0 0 0 0 0 0 0 0 0 127 0" result="hardAlpha"/>
<feOffset dy="4"/>
<feGaussianBlur stdDeviation="2"/>
<feComposite in2="hardAlpha" operator="out"/>
<feColorMatrix type="matrix" values="0 0 0 0 0 0 0 0 0 0 0 0 0 0 0 0 0 0 0.25 0"/>
<feBlend mode="normal" in2="BackgroundImageFix" result="effect1_dropShadow_513_461"/>
<feBlend mode="normal" in="SourceGraphic" in2="effect1_dropShadow_513_461" result="shape"/>
</filter>
<linearGradient id="paint0_linear_513_461" x1="196.872" y1="16.857" x2="202.726" y2="15.6905" gradientUnits="userSpaceOnUse">
<stop stop-color="#2B7A77"/>
<stop offset="0.51" stop-color="#4EBAA9"/>
<stop offset="1" stop-color="#5CC2B1"/>
</linearGradient>
<linearGradient id="paint1_linear_513_461" x1="199.887" y1="8.80263" x2="196.982" y2="15.6253" gradientUnits="userSpaceOnUse">
<stop stop-color="#236736"/>
<stop offset="0.493" stop-color="#6BA443"/>
<stop offset="1" stop-color="#86C146"/>
</linearGradient>
<linearGradient id="paint2_linear_513_461" x1="201.009" y1="8.0317" x2="205.279" y2="18.1997" gradientUnits="userSpaceOnUse">
<stop stop-color="#29A5E3"/>
<stop offset="0.515" stop-color="#356EB9"/>
<stop offset="1" stop-color="#394DA5"/>
</linearGradient>
</defs>
</svg>
