<svg width="265" height="46" viewBox="0 0 265 46" fill="none" xmlns="http://www.w3.org/2000/svg">
<g filter="url(#filter0_d_513_477)">
<rect x="4" y="12" width="257" height="26" rx="10" fill="white"/>
</g>
<path d="M17.0859 19.625H18.5938V27.6797C18.5938 28.7682 18.2656 29.6198 17.6094 30.2344C16.9583 30.849 16.0885 31.1562 15 31.1562C13.8698 31.1562 12.9896 30.8672 12.3594 30.2891C11.7292 29.7109 11.4141 28.901 11.4141 27.8594H12.9141C12.9141 28.5104 13.0911 29.0182 13.4453 29.3828C13.8047 29.7474 14.3229 29.9297 15 29.9297C15.6198 29.9297 16.1198 29.7344 16.5 29.3438C16.8854 28.9531 17.0807 28.4062 17.0859 27.7031V19.625ZM26.1406 31C26.0573 30.8333 25.9896 30.5365 25.9375 30.1094C25.2656 30.8073 24.4635 31.1562 23.5312 31.1562C22.6979 31.1562 22.013 30.9219 21.4766 30.4531C20.9453 29.9792 20.6797 29.3802 20.6797 28.6562C20.6797 27.776 21.013 27.0938 21.6797 26.6094C22.3516 26.1198 23.2943 25.875 24.5078 25.875H25.9141V25.2109C25.9141 24.7057 25.763 24.3047 25.4609 24.0078C25.1589 23.7057 24.7135 23.5547 24.125 23.5547C23.6094 23.5547 23.1771 23.6849 22.8281 23.9453C22.4792 24.2057 22.3047 24.5208 22.3047 24.8906H20.8516C20.8516 24.4688 21 24.0625 21.2969 23.6719C21.599 23.276 22.0052 22.9635 22.5156 22.7344C23.0312 22.5052 23.5964 22.3906 24.2109 22.3906C25.1849 22.3906 25.9479 22.6354 26.5 23.125C27.0521 23.6094 27.3385 24.2786 27.3594 25.1328V29.0234C27.3594 29.7995 27.4583 30.4167 27.6562 30.875V31H26.1406ZM23.7422 29.8984C24.1953 29.8984 24.625 29.7812 25.0312 29.5469C25.4375 29.3125 25.7318 29.0078 25.9141 28.6328V26.8984H24.7812C23.0104 26.8984 22.125 27.4167 22.125 28.4531C22.125 28.9062 22.276 29.2604 22.5781 29.5156C22.8802 29.7708 23.2682 29.8984 23.7422 29.8984ZM32.2891 29.0391L34.3828 22.5469H35.8594L32.8281 31H31.7266L28.6641 22.5469H30.1406L32.2891 29.0391ZM42.3438 31C42.2604 30.8333 42.1927 30.5365 42.1406 30.1094C41.4688 30.8073 40.6667 31.1562 39.7344 31.1562C38.901 31.1562 38.2161 30.9219 37.6797 30.4531C37.1484 29.9792 36.8828 29.3802 36.8828 28.6562C36.8828 27.776 37.2161 27.0938 37.8828 26.6094C38.5547 26.1198 39.4974 25.875 40.7109 25.875H42.1172V25.2109C42.1172 24.7057 41.9661 24.3047 41.6641 24.0078C41.362 23.7057 40.9167 23.5547 40.3281 23.5547C39.8125 23.5547 39.3802 23.6849 39.0312 23.9453C38.6823 24.2057 38.5078 24.5208 38.5078 24.8906H37.0547C37.0547 24.4688 37.2031 24.0625 37.5 23.6719C37.8021 23.276 38.2083 22.9635 38.7188 22.7344C39.2344 22.5052 39.7995 22.3906 40.4141 22.3906C41.388 22.3906 42.151 22.6354 42.7031 23.125C43.2552 23.6094 43.5417 24.2786 43.5625 25.1328V29.0234C43.5625 29.7995 43.6615 30.4167 43.8594 30.875V31H42.3438ZM39.9453 29.8984C40.3984 29.8984 40.8281 29.7812 41.2344 29.5469C41.6406 29.3125 41.9349 29.0078 42.1172 28.6328V26.8984H40.9844C39.2135 26.8984 38.3281 27.4167 38.3281 28.4531C38.3281 28.9062 38.4792 29.2604 38.7812 29.5156C39.0833 29.7708 39.4714 29.8984 39.9453 29.8984Z" fill="#262424"/>
<g filter="url(#filter1_d_513_477)">
<circle cx="104" cy="25" r="6" fill="white"/>
</g>
<g filter="url(#filter2_d_513_477)">
<circle cx="126.4" cy="25" r="6" fill="#1569EF" fill-opacity="0.4" shape-rendering="crispEdges"/>
</g>
<g filter="url(#filter3_d_513_477)">
<circle cx="148.8" cy="25" r="6" fill="#1569EF" fill-opacity="0.8" shape-rendering="crispEdges"/>
</g>
<g filter="url(#filter4_d_513_477)">
<circle cx="168" cy="25" r="6" fill="#1569EF"/>
</g>
<path d="M231.565 27.6955H231.464V27.6393H231.735V27.6955H231.635V27.9759H231.565V27.6955ZM232.104 27.7101H232.103L232.003 27.9759H231.958L231.859 27.7101H231.858V27.9759H231.791V27.6393H231.889L231.981 27.8777L232.072 27.6393H232.169V27.9759H232.104V27.7101H232.104ZM222.572 20.8121C222.572 20.8121 221.873 21.2186 223.069 21.3562C224.518 21.5215 225.259 21.4978 226.856 21.1955C226.856 21.1955 227.276 21.4588 227.863 21.6869C224.282 23.2215 219.759 21.598 222.572 20.8121ZM222.134 18.8096C222.134 18.8096 221.35 19.3899 222.547 19.5137C224.096 19.6735 225.318 19.6865 227.434 19.2791C227.434 19.2791 227.727 19.5758 228.187 19.738C223.858 21.004 219.036 19.8379 222.134 18.8096Z" fill="#5382A1"/>
<path d="M225.823 15.4123C226.705 16.4281 225.591 17.3422 225.591 17.3422C225.591 17.3422 227.831 16.1857 226.802 14.7375C225.841 13.387 225.104 12.7159 229.094 10.4023C229.094 10.4023 222.832 11.9662 225.823 15.4123Z" fill="#F8981D"/>
<path d="M230.558 22.2935C230.558 22.2935 231.075 22.7197 229.989 23.0494C227.922 23.6755 221.386 23.8646 219.571 23.0744C218.918 22.7904 220.142 22.3964 220.527 22.3138C220.928 22.2267 221.158 22.2429 221.158 22.2429C220.432 21.7316 216.467 23.2469 219.144 23.6808C226.444 24.8647 232.452 23.1477 230.558 22.2935ZM222.908 16.7348C222.908 16.7348 219.583 17.5244 221.73 17.8111C222.637 17.9325 224.444 17.9051 226.128 17.764C227.503 17.648 228.885 17.4012 228.885 17.4012C228.885 17.4012 228.4 17.609 228.049 17.8486C224.673 18.7364 218.151 18.3234 220.029 17.4153C221.617 16.6478 222.908 16.7348 222.908 16.7348ZM228.871 20.0682C232.303 18.285 230.716 16.5713 229.609 16.8022C229.337 16.8587 229.216 16.9076 229.216 16.9076C229.216 16.9076 229.317 16.7498 229.509 16.6814C231.7 15.9112 233.385 18.9532 228.802 20.1581C228.802 20.1581 228.855 20.1106 228.871 20.0682Z" fill="#5382A1"/>
<path d="M226.802 6.6665C226.802 6.6665 228.703 8.56766 225 11.4911C222.03 13.8362 224.322 15.1733 224.998 16.701C223.265 15.1371 221.993 13.7604 222.846 12.4791C224.099 10.5983 227.569 9.68638 226.802 6.6665Z" fill="#F8981D"/>
<path d="M223.245 24.9002C226.539 25.1111 231.597 24.7832 231.717 23.2246C231.717 23.2246 231.487 23.8155 228.995 24.2847C226.183 24.8138 222.715 24.752 220.659 24.4129C220.659 24.4129 221.08 24.7614 223.245 24.9002ZM222.705 30.8558C222.394 31.1253 222.066 31.2766 221.771 31.2766C221.351 31.2766 221.124 31.0245 221.124 30.6202C221.124 30.1829 221.367 29.8631 222.344 29.8631H222.705V30.8558H222.705ZM223.562 31.8232V28.8286C223.562 28.0636 223.126 27.5588 222.074 27.5588C221.46 27.5588 220.922 27.7105 220.485 27.9039L220.611 28.434C220.955 28.3076 221.401 28.19 221.838 28.19C222.444 28.19 222.705 28.434 222.705 28.9384V29.3169H222.402C220.93 29.3169 220.266 29.8884 220.266 30.7463C220.266 31.4866 220.704 31.9074 221.528 31.9074C222.057 31.9074 222.453 31.6887 222.823 31.3687L222.89 31.8232H223.562V31.8232ZM226.424 31.8232H225.355L224.067 27.6347H225.001L225.8 30.2081L225.978 30.9821C226.382 29.8631 226.667 28.7278 226.81 27.6347H227.719C227.475 29.0139 227.037 30.5278 226.424 31.8232ZM230.526 30.8558C230.215 31.1253 229.886 31.2766 229.592 31.2766C229.172 31.2766 228.944 31.0245 228.944 30.6202C228.944 30.1829 229.188 29.8631 230.164 29.8631H230.526V30.8558ZM231.384 31.8232V28.8286C231.384 28.0636 230.946 27.5588 229.896 27.5588C229.281 27.5588 228.743 27.7105 228.306 27.9039L228.432 28.434C228.776 28.3076 229.223 28.19 229.66 28.19C230.265 28.19 230.526 28.434 230.526 28.9384V29.3169H230.223C228.751 29.3169 228.087 29.8884 228.087 30.7463C228.087 31.4866 228.524 31.9074 229.348 31.9074C229.878 31.9074 230.273 31.6887 230.644 31.3687L230.711 31.8232H231.384V31.8232ZM219.326 32.5345C219.081 32.8914 218.687 33.1737 218.254 33.3334L217.831 32.8353C218.16 32.6665 218.442 32.3938 218.573 32.1399C218.687 31.914 218.734 31.623 218.734 30.9269V26.145H219.645V30.8614C219.645 31.792 219.57 32.1679 219.326 32.5345Z" fill="#5382A1"/>
<defs>
<filter id="filter0_d_513_477" x="0" y="12" width="265" height="34" filterUnits="userSpaceOnUse" color-interpolation-filters="sRGB">
<feFlood flood-opacity="0" result="BackgroundImageFix"/>
<feColorMatrix in="SourceAlpha" type="matrix" values="0 0 0 0 0 0 0 0 0 0 0 0 0 0 0 0 0 0 127 0" result="hardAlpha"/>
<feOffset dy="4"/>
<feGaussianBlur stdDeviation="2"/>
<feComposite in2="hardAlpha" operator="out"/>
<feColorMatrix type="matrix" values="0 0 0 0 0 0 0 0 0 0 0 0 0 0 0 0 0 0 0.25 0"/>
<feBlend mode="normal" in2="BackgroundImageFix" result="effect1_dropShadow_513_477"/>
<feBlend mode="normal" in="SourceGraphic" in2="effect1_dropShadow_513_477" result="shape"/>
</filter>
<filter id="filter1_d_513_477" x="94" y="19" width="20" height="20" filterUnits="userSpaceOnUse" color-interpolation-filters="sRGB">
<feFlood flood-opacity="0" result="BackgroundImageFix"/>
<feColorMatrix in="SourceAlpha" type="matrix" values="0 0 0 0 0 0 0 0 0 0 0 0 0 0 0 0 0 0 127 0" result="hardAlpha"/>
<feOffset dy="4"/>
<feGaussianBlur stdDeviation="2"/>
<feComposite in2="hardAlpha" operator="out"/>
<feColorMatrix type="matrix" values="0 0 0 0 0 0 0 0 0 0 0 0 0 0 0 0 0 0 0.25 0"/>
<feBlend mode="normal" in2="BackgroundImageFix" result="effect1_dropShadow_513_477"/>
<feBlend mode="normal" in="SourceGraphic" in2="effect1_dropShadow_513_477" result="shape"/>
</filter>
<filter id="filter2_d_513_477" x="116.4" y="19" width="20" height="20" filterUnits="userSpaceOnUse" color-interpolation-filters="sRGB">
<feFlood flood-opacity="0" result="BackgroundImageFix"/>
<feColorMatrix in="SourceAlpha" type="matrix" values="0 0 0 0 0 0 0 0 0 0 0 0 0 0 0 0 0 0 127 0" result="hardAlpha"/>
<feOffset dy="4"/>
<feGaussianBlur stdDeviation="2"/>
<feComposite in2="hardAlpha" operator="out"/>
<feColorMatrix type="matrix" values="0 0 0 0 0 0 0 0 0 0 0 0 0 0 0 0 0 0 0.25 0"/>
<feBlend mode="normal" in2="BackgroundImageFix" result="effect1_dropShadow_513_477"/>
<feBlend mode="normal" in="SourceGraphic" in2="effect1_dropShadow_513_477" result="shape"/>
</filter>
<filter id="filter3_d_513_477" x="138.8" y="19" width="20" height="20" filterUnits="userSpaceOnUse" color-interpolation-filters="sRGB">
<feFlood flood-opacity="0" result="BackgroundImageFix"/>
<feColorMatrix in="SourceAlpha" type="matrix" values="0 0 0 0 0 0 0 0 0 0 0 0 0 0 0 0 0 0 127 0" result="hardAlpha"/>
<feOffset dy="4"/>
<feGaussianBlur stdDeviation="2"/>
<feComposite in2="hardAlpha" operator="out"/>
<feColorMatrix type="matrix" values="0 0 0 0 0 0 0 0 0 0 0 0 0 0 0 0 0 0 0.25 0"/>
<feBlend mode="normal" in2="BackgroundImageFix" result="effect1_dropShadow_513_477"/>
<feBlend mode="normal" in="SourceGraphic" in2="effect1_dropShadow_513_477" result="shape"/>
</filter>
<filter id="filter4_d_513_477" x="158" y="19" width="20" height="20" filterUnits="userSpaceOnUse" color-interpolation-filters="sRGB">
<feFlood flood-opacity="0" result="BackgroundImageFix"/>
<feColorMatrix in="SourceAlpha" type="matrix" values="0 0 0 0 0 0 0 0 0 0 0 0 0 0 0 0 0 0 127 0" result="hardAlpha"/>
<feOffset dy="4"/>
<feGaussianBlur stdDeviation="2"/>
<feComposite in2="hardAlpha" operator="out"/>
<feColorMatrix type="matrix" values="0 0 0 0 0 0 0 0 0 0 0 0 0 0 0 0 0 0 0.25 0"/>
<feBlend mode="normal" in2="BackgroundImageFix" result="effect1_dropShadow_513_477"/>
<feBlend mode="normal" in="SourceGraphic" in2="effect1_dropShadow_513_477" result="shape"/>
</filter>
</defs>
</svg>
