<svg width="50" height="34" viewBox="0 0 50 34" fill="none" xmlns="http://www.w3.org/2000/svg">
<path d="M30.4708 23.0797H30.3871V23.0329H30.6124V23.0797H30.5293V23.3134H30.4708V23.0797ZM30.9203 23.0919H30.919L30.8361 23.3134H30.7981L30.7157 23.0919H30.7147V23.3134H30.6595V23.0329H30.7407L30.8171 23.2316L30.8932 23.0329H30.9741V23.3134H30.9203V23.0919H30.9203ZM22.9762 17.3436C22.9762 17.3436 22.3938 17.6823 23.3908 17.797C24.5986 17.9348 25.2159 17.915 26.547 17.6631C26.547 17.6631 26.8969 17.8825 27.3857 18.0726C24.4018 19.3514 20.6326 17.9985 22.9762 17.3436ZM22.6116 15.6748C22.6116 15.6748 21.9583 16.1584 22.9561 16.2616C24.2463 16.3947 25.2653 16.4056 27.0285 16.0661C27.0285 16.0661 27.2723 16.3133 27.6558 16.4485C24.0481 17.5035 20.0298 16.5317 22.6116 15.6748Z" fill="#5382A1"/>
<path d="M25.6853 12.8439C26.4206 13.6904 25.4922 14.4521 25.4922 14.4521C25.4922 14.4521 27.359 13.4884 26.5017 12.2816C25.7009 11.1561 25.0868 10.5969 28.4112 8.66895C28.4112 8.66895 23.1931 9.97219 25.6853 12.8439Z" fill="#F8981D"/>
<path d="M29.6319 18.5778C29.6319 18.5778 30.0629 18.933 29.1571 19.2078C27.4348 19.7295 21.9886 19.8871 20.4756 19.2285C19.9318 18.9919 20.9517 18.6636 21.2725 18.5947C21.6071 18.5222 21.7983 18.5357 21.7983 18.5357C21.1934 18.1096 17.8889 19.3723 20.1197 19.7339C26.2035 20.7205 31.2099 19.2896 29.6319 18.5778ZM23.2563 13.9456C23.2563 13.9456 20.486 14.6036 22.2753 14.8425C23.0308 14.9437 24.5368 14.9208 25.9397 14.8033C27.0861 14.7065 28.2373 14.5009 28.2373 14.5009C28.2373 14.5009 27.8331 14.674 27.5406 14.8738C24.7274 15.6136 19.2928 15.2694 20.8574 14.5126C22.1805 13.873 23.2563 13.9456 23.2563 13.9456ZM28.2259 16.7234C31.0856 15.2374 29.7634 13.8093 28.8405 14.0017C28.6143 14.0488 28.5134 14.0896 28.5134 14.0896C28.5134 14.0896 28.5974 13.958 28.7578 13.9011C30.5836 13.2592 31.9877 15.7943 28.1684 16.7983C28.1684 16.7983 28.2127 16.7588 28.2259 16.7234Z" fill="#5382A1"/>
<path d="M26.5017 5.55566C26.5017 5.55566 28.0855 7.13996 24.9996 9.57616C22.525 11.5304 24.4353 12.6447 24.9985 13.9178C23.5541 12.6145 22.4941 11.4673 23.2052 10.3995C24.249 8.83214 27.1407 8.07222 26.5017 5.55566Z" fill="#F8981D"/>
<path d="M23.5373 20.7503C26.2823 20.9261 30.4975 20.6529 30.5973 19.354C30.5973 19.354 30.4054 19.8464 28.3288 20.2374C25.9859 20.6783 23.0962 20.6269 21.3824 20.3443C21.3824 20.3442 21.7332 20.6347 23.5373 20.7503ZM23.0875 25.7133C22.8285 25.9379 22.555 26.064 22.3096 26.064C21.9593 26.064 21.77 25.8539 21.77 25.517C21.77 25.1526 21.9728 24.8861 22.7864 24.8861H23.0874V25.7133H23.0875ZM23.802 26.5195V24.024C23.802 23.3865 23.4384 22.9659 22.5617 22.9659C22.05 22.9659 21.6017 23.0922 21.2373 23.2534L21.3425 23.6951C21.6294 23.5898 22.0007 23.4918 22.3652 23.4918C22.8702 23.4918 23.0875 23.6951 23.0875 24.1155V24.4309H22.8354C21.6085 24.4309 21.055 24.9072 21.055 25.6221C21.055 26.239 21.4197 26.5897 22.1065 26.5897C22.5479 26.5897 22.8774 26.4075 23.1855 26.1407L23.2414 26.5195H23.802V26.5195ZM26.1866 26.5195H25.2954L24.2229 23.029H25.0011L25.6667 25.1736L25.8146 25.8186C26.1513 24.8861 26.3894 23.94 26.5085 23.029H27.2655C27.0627 24.1784 26.6977 25.44 26.1866 26.5195ZM29.6053 25.7133C29.3458 25.9379 29.0718 26.064 28.8264 26.064C28.4767 26.064 28.2869 25.8539 28.2869 25.517C28.2869 25.1526 28.4902 24.8861 29.3037 24.8861H29.6053V25.7133ZM30.3197 26.5195V24.024C30.3197 23.3865 29.9552 22.9659 29.0796 22.9659C28.5675 22.9659 28.119 23.0922 27.7548 23.2534L27.8598 23.6951C28.1468 23.5898 28.5189 23.4918 28.8831 23.4918C29.3877 23.4918 29.6053 23.6951 29.6053 24.1155V24.4309H29.3528C28.1255 24.4309 27.5723 24.9072 27.5723 25.6221C27.5723 26.239 27.9367 26.5897 28.6233 26.5897C29.065 26.5897 29.3944 26.4075 29.703 26.1407L29.7591 26.5195H30.3197V26.5195ZM20.2715 27.1122C20.0678 27.4096 19.7388 27.6449 19.3787 27.778L19.0259 27.3629C19.3 27.2222 19.5351 26.995 19.6444 26.7834C19.7389 26.5952 19.778 26.3526 19.778 25.7726V21.7877H20.5371V25.718C20.5371 26.4935 20.4751 26.8067 20.2715 27.1122Z" fill="#5382A1"/>
</svg>
